<?xml version="1.0" encoding="UTF-8"?>
<svg version="1.1" xmlns="http://www.w3.org/2000/svg" width="536" height="536">
<path d="M0 0 C1.01857086 0.00215515 2.03714172 0.0043103 3.08657837 0.00653076 C17.71806193 0.05623956 31.99152193 0.40603466 46.375 3.3125 C47.41462891 3.51117676 48.45425781 3.70985352 49.52539062 3.91455078 C73.23551295 8.5072689 95.6890296 15.67137324 117.375 26.3125 C118.23722168 26.73402344 119.09944336 27.15554687 119.98779297 27.58984375 C137.70578454 36.34331732 154.04680311 46.84016312 169.375 59.3125 C169.9097998 59.74433594 170.44459961 60.17617188 170.99560547 60.62109375 C185.40630454 72.34332465 199.14854651 85.4819821 210.375 100.3125 C211.28826247 101.47458751 212.20238654 102.63599821 213.1171875 103.796875 C249.7687975 150.85573228 268.9137648 208.50548086 268.6875 267.9375 C268.68534485 268.95607086 268.6831897 269.97464172 268.68096924 271.02407837 C268.63126044 285.65556193 268.28146534 299.92902193 265.375 314.3125 C265.17632324 315.35212891 264.97764648 316.39175781 264.77294922 317.46289062 C260.1802311 341.17301295 253.01612676 363.6265296 242.375 385.3125 C241.95347656 386.17472168 241.53195312 387.03694336 241.09765625 387.92529297 C232.34418268 405.64328454 221.84733688 421.98430311 209.375 437.3125 C208.72724609 438.11469971 208.72724609 438.11469971 208.06640625 438.93310547 C196.34417535 453.34380454 183.2055179 467.08604651 168.375 478.3125 C167.21291249 479.22576247 166.05150179 480.13988654 164.890625 481.0546875 C117.83176772 517.7062975 60.18201914 536.8512648 0.75 536.625 C-0.77785629 536.62176727 -0.77785629 536.62176727 -2.33657837 536.61846924 C-16.96806193 536.56876044 -31.24152193 536.21896534 -45.625 533.3125 C-46.66462891 533.11382324 -47.70425781 532.91514648 -48.77539062 532.71044922 C-72.48551295 528.1177311 -94.9390296 520.95362676 -116.625 510.3125 C-117.91833252 509.68021484 -117.91833252 509.68021484 -119.23779297 509.03515625 C-136.95578454 500.28168268 -153.29680311 489.78483688 -168.625 477.3125 C-169.1597998 476.88066406 -169.69459961 476.44882812 -170.24560547 476.00390625 C-184.65630454 464.28167535 -198.39854651 451.1430179 -209.625 436.3125 C-210.53826247 435.15041249 -211.45238654 433.98900179 -212.3671875 432.828125 C-249.0187975 385.76926772 -268.1637648 328.11951914 -267.9375 268.6875 C-267.93426727 267.15964371 -267.93426727 267.15964371 -267.93096924 265.60092163 C-267.88126044 250.96943807 -267.53146534 236.69597807 -264.625 222.3125 C-264.42632324 221.27287109 -264.22764648 220.23324219 -264.02294922 219.16210938 C-259.4302311 195.45198705 -252.26612676 172.9984704 -241.625 151.3125 C-241.20347656 150.45027832 -240.78195313 149.58805664 -240.34765625 148.69970703 C-231.59418268 130.98171546 -221.09733688 114.64069689 -208.625 99.3125 C-208.19316406 98.7777002 -207.76132813 98.24290039 -207.31640625 97.69189453 C-195.59417535 83.28119546 -182.4555179 69.53895349 -167.625 58.3125 C-166.46291249 57.39923753 -165.30150179 56.48511346 -164.140625 55.5703125 C-117.08176772 18.9187025 -59.43201914 -0.2262648 0 0 Z " fill="#163350" transform="translate(267.625,-0.3125)"/>
<path d="M0 0 C14.86669384 11.85371056 25.15624781 28.38747363 27.9296875 47.3359375 C28.95270814 60.61927092 27.73817807 73.45266143 22.8671875 85.8984375 C22.49194946 86.8884375 22.49194946 86.8884375 22.10913086 87.8984375 C16.14758161 102.12710752 3.95304932 112.68622701 -6.8203125 123.2734375 C-8.32752777 124.7655644 -9.83404306 126.2583987 -11.33984375 127.75195312 C-14.09434668 130.48216775 -16.85271241 133.20833505 -19.61621094 135.92944336 C-22.44764403 138.71835883 -25.26423237 141.52148009 -28.0703125 144.3359375 C-39.0703125 155.3359375 -39.0703125 155.3359375 -41.38764954 157.65029907 C-44.16926014 160.43499489 -46.94162803 163.22871296 -49.71166992 166.02490234 C-55.22068008 171.58301763 -60.7373875 177.1334269 -66.25847912 182.67954063 C-69.58885946 186.02556126 -72.91638039 189.37432592 -76.23754883 192.72949219 C-79.46563555 195.99039429 -82.70119337 199.2437145 -85.94185829 202.49211502 C-87.16715009 203.72290209 -88.3898223 204.95630344 -89.60967064 206.19248581 C-99.05230573 215.75653517 -108.53091815 224.04075997 -121.0703125 229.3359375 C-122.16214844 229.80386719 -123.25398438 230.27179688 -124.37890625 230.75390625 C-139.97561403 236.81071815 -158.84541934 236.76729797 -174.49609375 230.9453125 C-185.01637674 226.20831076 -193.89637082 220.62770176 -202.0703125 212.3359375 C-202.69292969 211.72363281 -203.31554687 211.11132812 -203.95703125 210.48046875 C-217.97723972 195.70411421 -223.7286034 176.2210113 -223.37890625 156.2265625 C-221.54865479 133.15149347 -209.09617611 117.06266013 -193.19482422 101.15405273 C-192.12239296 100.07397971 -191.0503576 98.99351348 -189.97868347 97.91268921 C-187.09271422 95.00497094 -184.20038072 92.10366961 -181.30607367 89.20425296 C-179.49112248 87.3856358 -177.67747065 85.56573265 -175.86423111 83.74540901 C-169.51868883 77.37544345 -163.16750927 71.01115558 -156.81152344 64.65161133 C-150.91823388 58.75468876 -145.03820679 52.84476434 -139.16407764 46.92876095 C-134.09328405 41.82311126 -129.01275051 36.72728735 -123.92484677 31.63868862 C-120.89815664 28.61121111 -117.87545057 25.580016 -114.86275864 22.53860283 C-112.02560772 19.67500586 -109.17637196 16.82397628 -106.31803322 13.98153305 C-105.2810482 12.94634142 -104.24818225 11.90700118 -103.22019386 10.86287498 C-74.7476712 -18.0285784 -33.69417722 -24.79693727 0 0 Z " fill="#FCFBFA" transform="translate(399.0703125,226.6640625)"/>
<path d="M0 0 C0.7509648 -0.00438225 1.50192961 -0.00876451 2.27565092 -0.01327956 C4.79960945 -0.026666 7.32353306 -0.03284613 9.84751892 -0.03897095 C11.65437477 -0.0468722 13.46122905 -0.05514117 15.26808167 -0.06375122 C21.20982862 -0.0899744 27.15158262 -0.10528179 33.09336853 -0.11953735 C35.13962242 -0.12489741 37.18587626 -0.13027492 39.23213005 -0.13566971 C47.7462468 -0.15730121 56.26036166 -0.17603647 64.77449894 -0.1872921 C76.96991916 -0.20352079 89.16502024 -0.23666936 101.36032015 -0.29369295 C109.93796066 -0.33243036 118.51551596 -0.35192945 127.09324163 -0.35721266 C132.21442675 -0.36086165 137.3352715 -0.37283445 142.45636177 -0.4053154 C147.27864767 -0.43546185 152.10038845 -0.4416844 156.92274857 -0.42993164 C158.68754677 -0.42971144 160.45237075 -0.43797215 162.21708107 -0.45558548 C173.34680002 -0.56057399 181.50130651 0.27573761 190.50233459 7.378479 C191.23765411 8.12791779 191.97297363 8.87735657 192.73057556 9.64950562 C193.5849118 10.5074472 194.43924805 11.36538879 195.31947327 12.24932861 C196.20521027 13.16400909 197.09094727 14.07868958 198.00352478 15.02108765 C198.95536834 15.98483956 199.90842762 16.94739211 200.86262512 17.90881348 C203.35300018 20.42372732 205.82840844 22.95284246 208.30027771 25.4859314 C211.77918346 29.04566334 215.27817047 32.58567419 218.77522278 36.12756348 C220.63056363 38.00674239 222.47925434 39.89174873 224.32484436 41.78057861 C228.7258336 46.26571279 233.15745551 50.57445678 238.00593567 54.5760498 C242.80602406 59.09159665 246.4273367 65.76772894 246.92372131 72.3367157 C246.91928009 73.53362534 246.91483887 74.73053497 246.91026306 75.9637146 C246.91055511 76.62768753 246.91084717 77.29166046 246.91114807 77.97575378 C246.90976188 80.15636558 246.89423467 82.33662976 246.87852478 84.5171814 C246.87479211 86.03461012 246.87194634 87.55204126 246.86994934 89.06947327 C246.86233283 93.05286374 246.84270151 97.03610712 246.82054138 101.0194397 C246.80004014 105.08832815 246.79093849 109.1572405 246.78086853 113.22616577 C246.7594536 121.20215207 246.72428776 129.17799084 246.68321228 137.15390015 C235.29821228 136.16390015 235.29821228 136.16390015 223.68321228 135.15390015 C223.68321228 116.01390015 223.68321228 96.87390015 223.68321228 77.15390015 C209.18877913 77.27236028 209.18877913 77.27236028 194.69468689 77.42416382 C192.86664863 77.43293234 191.03860448 77.44057541 189.21055603 77.4468689 C188.27473694 77.4622168 187.33891785 77.4775647 186.3747406 77.49337769 C180.70149917 77.49563106 176.59706854 77.10454183 171.68321228 74.15390015 C167.04383152 68.88273559 167.14822299 64.39067383 167.29258728 57.72421265 C167.29824707 56.73388031 167.30390686 55.74354797 167.30973816 54.72320557 C167.33204554 51.5746024 167.38223226 48.42715666 167.43321228 45.27890015 C167.45328453 43.13829164 167.47153403 40.9976652 167.48789978 38.85702515 C167.53189159 33.62225834 167.598747 28.38816196 167.68321228 23.15390015 C145.42206201 23.23768901 123.16098579 23.33278096 100.8999424 23.44142723 C90.56436781 23.4916054 80.22880137 23.53804761 69.89317322 23.57577515 C60.88741341 23.60865774 51.88171583 23.64846806 42.8760246 23.6966902 C38.1050774 23.72199245 33.33417167 23.74376261 28.5631752 23.75724411 C24.07673499 23.77003081 19.59043675 23.79204811 15.10407448 23.82128334 C13.45367144 23.83038578 11.80324553 23.83605552 10.15281868 23.83811378 C7.90689684 23.84141763 5.66138217 23.85684314 3.4155426 23.87542725 C2.15637339 23.880958 0.89720417 23.88648876 -0.40012169 23.89218712 C-3.44119247 23.85091671 -3.44119247 23.85091671 -5.31678772 26.15390015 C-5.62057257 28.22599903 -5.62057257 28.22599903 -5.57126331 30.64957142 C-5.57709551 31.60143701 -5.5829277 32.55330261 -5.58893663 33.53401262 C-5.5851573 34.58700522 -5.58137798 35.63999782 -5.57748413 36.72489929 C-5.58130968 37.83789011 -5.58513523 38.95088092 -5.5890767 40.09759873 C-5.59945159 43.85249696 -5.59540602 47.60724356 -5.59144592 51.3621521 C-5.59578996 54.04396071 -5.60090709 56.72575793 -5.60693359 59.40756226 C-5.61970831 65.95156575 -5.62147077 72.49552826 -5.61913333 79.03954212 C-5.61735278 84.35791603 -5.61909416 89.67627747 -5.62335777 94.99464989 C-5.62395296 95.75060891 -5.62454815 96.50656794 -5.62516138 97.28543481 C-5.62637309 98.82102409 -5.62758722 100.35661336 -5.62880375 101.89220264 C-5.63969037 116.30646137 -5.63751174 130.72069674 -5.63141891 145.1349568 C-5.62625108 158.32642855 -5.63749962 171.51782643 -5.65651713 184.70928357 C-5.6758828 198.24579658 -5.68415361 211.78227462 -5.68039387 225.31880158 C-5.67847959 232.92185691 -5.68099122 240.52484939 -5.69510841 248.12789345 C-5.70700717 254.60188657 -5.70844424 261.07577818 -5.69631825 267.54977266 C-5.69041833 270.85369238 -5.69097985 274.15738737 -5.70132065 277.4613018 C-5.7117207 281.04169186 -5.70374122 284.62157856 -5.69100952 288.20195007 C-5.69838381 289.24825051 -5.70575809 290.29455095 -5.71335584 291.37255746 C-5.68704583 298.26173922 -5.68704583 298.26173922 -2.31678772 304.15390015 C2.01395002 307.78467039 6.30813537 307.62395041 11.70274353 307.6656189 C12.56131454 307.6835701 13.41988556 307.7015213 14.30447388 307.72001648 C17.03483738 307.77400755 19.7650272 307.80797889 22.49571228 307.84140015 C24.35185618 307.87458315 26.2079772 307.90907372 28.06407166 307.94491577 C32.60380864 308.03217938 37.14276336 308.09234193 41.68321228 308.15390015 C42.01321228 315.74390015 42.34321228 323.33390015 42.68321228 331.15390015 C36.45687103 331.24614224 30.23293666 331.32565689 24.00645447 331.37362671 C21.89211456 331.39364031 19.77782929 331.42085987 17.66368103 331.45565796 C14.6101578 331.50462956 11.5573715 331.52697197 8.50352478 331.54452515 C7.57081757 331.56517029 6.63811035 331.58581543 5.67713928 331.60708618 C-4.97971901 331.61066291 -12.5209808 327.82004505 -20.12147522 320.50546265 C-28.90258372 311.09936421 -30.77789683 300.04703561 -30.70446777 287.49629211 C-30.70985331 286.37505575 -30.71523885 285.25381939 -30.72078758 284.09860617 C-30.7350101 280.3694462 -30.72797742 276.64064406 -30.72084045 272.91146851 C-30.72654691 270.22658682 -30.73341235 267.54173017 -30.74163818 264.8568573 C-30.75877528 258.33846191 -30.75967704 251.82016313 -30.75442528 245.30175107 C-30.75037379 240.00174607 -30.75183872 234.70176948 -30.75717354 229.40176582 C-30.75792196 228.64569446 -30.75867038 227.8896231 -30.75944148 227.11064048 C-30.76097305 225.57441667 -30.76251139 224.03819285 -30.76405645 222.50196905 C-30.77776239 208.11850585 -30.77235663 193.73509716 -30.76087124 179.35163523 C-30.75093492 166.20612127 -30.76388977 153.06074798 -30.78780543 139.91525572 C-30.81221181 126.39763622 -30.82180089 112.88008221 -30.8151527 99.36244112 C-30.81166466 91.781141 -30.81386539 84.1999491 -30.83140373 76.6186657 C-30.84614474 70.1669631 -30.84673617 63.71544501 -30.82933282 57.26374596 C-30.82083699 53.9752891 -30.82081779 50.68722831 -30.83398438 47.39877701 C-30.84719179 43.82705006 -30.8356475 40.25621348 -30.81799316 36.68452454 C-30.82759817 35.65503643 -30.83720318 34.62554833 -30.84709924 33.56486362 C-30.74603543 23.60112299 -27.52526806 14.27094099 -20.31678772 7.15390015 C-13.61206522 2.35285861 -8.24969387 0.00583068 0 0 Z " fill="#FAFAFB" transform="translate(127.31678771972656,68.84609985351563)"/>
<path d="M0 0 C9.66160595 7.79438069 17.83759218 20.02465283 19.29760742 32.55395508 C19.43739623 35.27318613 19.46758125 37.9649084 19.4375 40.6875 C19.42614014 42.13334473 19.42614014 42.13334473 19.41455078 43.60839844 C18.88557318 66.69035518 5.99365818 80.20132161 -9.62890625 95.7265625 C-10.50401352 96.60025482 -11.37912079 97.47394714 -12.28074646 98.37411499 C-15.03896369 101.1267957 -17.80066137 103.87595325 -20.5625 106.625 C-22.44908713 108.5059904 -24.33486967 110.38778499 -26.22070312 112.26953125 C-30.8111435 116.84902698 -35.40443606 121.42564613 -40 126 C-41.18697552 122.43907345 -40.64571302 120.66782568 -40 117 C-39.88447129 114.6061377 -39.82512706 112.20911515 -39.8125 109.8125 C-39.79832031 108.60207031 -39.78414063 107.39164062 -39.76953125 106.14453125 C-39.76485145 103.61151269 -40.02136702 101.94413119 -40.93530273 99.55444336 C-42.04515897 96.35506651 -42.44880068 94.37992034 -42 91 C-38.61766558 85.47053005 -33.21173615 81.22596697 -28.4375 76.9375 C-25.83504187 74.54858346 -23.25164518 72.14069973 -20.68359375 69.71484375 C-20.07139984 69.13769623 -19.45920593 68.56054871 -18.82846069 67.96591187 C-11.25666396 60.62590349 -7.92731042 52.86284619 -7.625 42.375 C-7.70791206 34.39056876 -9.51850528 28.91946527 -14.83203125 22.9375 C-21.66598873 16.46748108 -28.73438606 14.47553605 -38 14.5625 C-38.75539063 14.54251953 -39.51078125 14.52253906 -40.2890625 14.50195312 C-51.15209686 14.51128563 -57.53031975 20.77353387 -65 28 C-65.57371338 28.55210144 -66.14742676 29.10420288 -66.73852539 29.67303467 C-70.74805958 33.54098333 -74.71864741 37.44638044 -78.66943359 41.37426758 C-80.05920063 42.75245594 -81.45343819 44.12615046 -82.85205078 45.49536133 C-97.94841772 59.73920751 -97.94841772 59.73920751 -103.3125 79.0625 C-103.29778651 92.70844199 -97.34720919 99.65279081 -88 109 C-87.50378865 113.19603281 -88.21628168 116.80137198 -90.52734375 120.3359375 C-94.20495824 124.64333375 -96.41245828 126.64484722 -102.1875 127.4375 C-109.44186136 126.6050323 -113.65339179 121.65342971 -118.1875 116.25 C-128.47717257 102.73219486 -131.62059265 87.72191713 -130 71 C-126.07385126 49.33607213 -109.01603051 34.80598275 -94.21240234 19.91723633 C-92.81988376 18.51315414 -91.43185473 17.10460522 -90.04833984 15.69165039 C-63.88134761 -11.02833967 -33.53288792 -23.98667561 0 0 Z " fill="#F17212" transform="translate(390,242)"/>
<path d="M0 0 C12.0721315 5.76992528 20.13985433 18.02719313 24.68359375 30.25 C26.26421468 35.22161026 26.41163009 39.87997874 26.3125 45.0625 C26.31572266 45.90876953 26.31894531 46.75503906 26.32226562 47.62695312 C26.23744046 57.62861175 23.09792927 65.9523247 19 75 C18.60296875 75.91007812 18.2059375 76.82015625 17.796875 77.7578125 C13.88203029 85.84691934 7.96534209 91.49128646 1.51245117 97.57006836 C-2.75140628 101.6012892 -6.73612703 105.85607526 -10.6875 110.1875 C-12.78643766 112.46320731 -14.89245776 114.73226293 -17 117 C-17.86367188 117.93199219 -18.72734375 118.86398437 -19.6171875 119.82421875 C-30.32657625 130.99551405 -43.10567037 138.61023125 -58.796875 139.3359375 C-74.04344544 139.61447622 -85.43647244 137.08407631 -98 128 C-99.03125 127.278125 -100.0625 126.55625 -101.125 125.8125 C-111.43236806 116.64043625 -118.14797212 103.63634301 -119.15527344 89.87939453 C-120.04364239 72.22581481 -116.84364989 58.99063655 -104.75086975 45.48880005 C-102.24469673 42.90068223 -99.69881755 40.36076213 -97.12890625 37.8359375 C-96.206577 36.91785309 -95.28424774 35.99976868 -94.33396912 35.05386353 C-91.9125244 32.64373151 -89.48220407 30.24275693 -87.04974365 27.84375 C-84.55689782 25.38190233 -82.07279871 22.91126123 -79.58789062 20.44140625 C-74.73365573 15.61909498 -69.86996169 10.80642729 -65 6 C-63.81400167 8.37199666 -63.89915736 9.76069536 -63.9375 12.40234375 C-63.94873901 13.72999756 -63.94873901 13.72999756 -63.96020508 15.08447266 C-63.98695332 17.00214087 -64.0154645 18.91978522 -64.0456543 20.83740234 C-64.09507887 25.80267073 -63.87240367 30.25228851 -62.8125 35.125 C-62.37172936 38.83335033 -62.82617214 39.77087772 -65.13671875 42.81640625 C-67.92109154 45.73645717 -70.96847019 48.34133214 -74 51 C-75.85986382 52.98764072 -77.61734678 55.0313064 -79.37890625 57.10546875 C-80.50612448 58.42282017 -81.66229024 59.71572342 -82.83984375 60.98828125 C-90.38153127 69.19963236 -92.72917068 74.98575656 -92.37890625 86.375 C-91.47246427 95.04693981 -87.20962551 101.05918944 -81 107 C-74.14232196 112.51803861 -67.53277966 112.65121102 -59 112 C-44.69463294 109.19576911 -34.61004776 95.82123241 -24.70288086 85.94311523 C-22.68070906 83.93074197 -20.64809534 81.92930175 -18.61523438 79.92773438 C-17.30923937 78.62826359 -16.00387832 77.32815529 -14.69921875 76.02734375 C-13.80066414 75.14730934 -13.80066414 75.14730934 -12.88395691 74.24949646 C-5.18344277 66.5082934 -0.07023172 57.54893522 0.375 46.4375 C-0.09753614 35.25414472 -6.13125993 27.41909778 -14 20 C-15.70385166 18.29614834 -15.33267101 16.20665078 -15.4375 13.875 C-15.41662843 8.53187868 -14.22217953 5.99244214 -10.5078125 2.2421875 C-7.09093387 -0.57275396 -4.34417886 -0.48268654 0 0 Z " fill="#F17112" transform="translate(313,304)"/>
<path d="M0 0 C1.25620148 -0.0071553 2.51240295 -0.01431061 3.80667114 -0.02168274 C5.20666479 -0.02452314 6.60665871 -0.02723486 8.00665283 -0.02983093 C9.47502809 -0.03609462 10.94340176 -0.04274133 12.41177368 -0.04974365 C16.40779292 -0.06716323 20.40380018 -0.07770823 24.39984798 -0.08594918 C26.89613745 -0.09109781 29.39242319 -0.09717363 31.88871002 -0.10346031 C39.69806003 -0.12251593 47.50740057 -0.13674571 55.31676936 -0.14507228 C64.33296091 -0.15484406 73.34890691 -0.18116035 82.36501193 -0.22157317 C89.3323941 -0.25173171 96.29970589 -0.26654094 103.26715207 -0.26985329 C107.42909458 -0.27220428 111.59077488 -0.28117064 115.7526474 -0.30631447 C119.66956272 -0.32959551 123.58604322 -0.33382851 127.5030098 -0.32355309 C128.93890708 -0.3230576 130.37482575 -0.32938192 131.8106575 -0.34310913 C133.7745708 -0.36083103 135.73867294 -0.35133563 137.70263672 -0.34057617 C138.8006599 -0.34296453 139.89868309 -0.34535288 141.02997971 -0.34781361 C144.89466364 0.27422504 147.05631682 1.73356606 150.10528564 4.14717102 C152.59984481 7.88900977 152.48135087 9.70960138 152.10528564 14.14717102 C150.77348841 17.99458525 149.88716514 19.67366035 146.38462925 21.79481602 C142.89105258 23.23551771 140.51984959 23.5264461 136.76078796 23.53485107 C134.87869125 23.54970802 134.87869125 23.54970802 132.95857239 23.56486511 C131.58096215 23.56062767 130.20335286 23.55606987 128.82574463 23.55122375 C127.36500527 23.55693021 125.90427038 23.56389554 124.44354248 23.57202148 C120.48701213 23.5899346 116.53070377 23.58878842 112.57414508 23.5830791 C109.26881253 23.57998555 105.96352252 23.58608132 102.65819603 23.59211785 C94.86130763 23.60615445 87.06452882 23.60460809 79.26763916 23.59321594 C71.22635271 23.5817263 63.18539944 23.59582641 55.14415687 23.62261242 C48.23528617 23.64476392 41.32652012 23.65140833 34.41761643 23.64553601 C30.29324202 23.642165 26.16908137 23.64459128 22.04473686 23.66178703 C18.1679462 23.67724623 14.2916499 23.67331253 10.41487885 23.65448189 C8.99308683 23.65079358 7.57125825 23.65391163 6.14949989 23.66436768 C4.20730398 23.6775599 2.26498048 23.66363287 0.32279968 23.64837646 C-1.30676336 23.64806254 -1.30676336 23.64806254 -2.96924686 23.64774227 C-7.18045484 22.92717038 -9.67566404 20.77257145 -12.20721436 17.39717102 C-13.26695138 13.92894076 -13.58197125 10.69232788 -12.89471436 7.14717102 C-9.57111381 1.40191356 -6.390737 0.02490681 0 0 Z " fill="#FBFCFC" transform="translate(163.89471435546875,185.8528289794922)"/>
<path d="M0 0 C0.88812881 -0.0065712 1.77625763 -0.0131424 2.69129944 -0.01991272 C5.63298628 -0.03963771 8.57462212 -0.05130605 11.51635742 -0.0612793 C12.52111303 -0.06535482 13.52586864 -0.06943035 14.5610714 -0.07362938 C19.87827728 -0.09448588 25.19545738 -0.1087899 30.51269531 -0.11816406 C36.00399384 -0.12923257 41.4948876 -0.16363892 46.98604298 -0.20333576 C51.2094142 -0.22948058 55.43268862 -0.23785397 59.65613365 -0.24144554 C61.68032251 -0.24631636 63.7045069 -0.2579444 65.72861671 -0.27648354 C68.56289395 -0.30083119 71.39611895 -0.299918 74.23046875 -0.29296875 C75.0644519 -0.30577881 75.89843506 -0.31858887 76.75769043 -0.33178711 C82.07012565 -0.28437338 85.10802649 0.63186631 89.30932617 4.17700195 C91.99864478 8.21097986 92.10195827 11.43738555 91.30932617 16.17700195 C89.65310473 19.42100594 87.41973881 21.57922067 84.18615723 23.31999207 C80.24135873 24.49515016 76.56292676 24.46395707 72.4675293 24.45166016 C71.58725571 24.45677109 70.70698212 24.46188202 69.80003357 24.46714783 C66.89681152 24.48102243 63.99382739 24.48008888 61.09057617 24.4777832 C59.06945711 24.48167084 57.04833887 24.48600565 55.02722168 24.49076843 C50.79391835 24.49822571 46.56069843 24.49794257 42.32739258 24.49267578 C36.90336333 24.48687686 31.47967507 24.50382484 26.05570221 24.52702045 C21.88297531 24.54175226 17.71033069 24.54263033 13.5375824 24.53951073 C11.53770776 24.54002405 9.53782853 24.5452639 7.53797913 24.55532265 C4.74213477 24.56766113 1.94695676 24.56091127 -0.84887695 24.54931641 C-2.08650536 24.56078201 -2.08650536 24.56078201 -3.34913635 24.57247925 C-7.9497217 24.53031481 -10.95897691 24.1624866 -14.69067383 21.17700195 C-17.56380999 16.81776088 -18.50812557 13.35419633 -17.69067383 8.17700195 C-12.97847904 0.72343598 -8.51266013 0.02724786 0 0 Z " fill="#F8F8F9" transform="translate(168.690673828125,232.822998046875)"/>
<path d="M0 0 C0.88973511 -0.0049649 1.77947021 -0.00992981 2.69616699 -0.01504517 C5.64266734 -0.02966304 8.58911386 -0.03646789 11.53564453 -0.04199219 C13.58204144 -0.04774359 15.62843833 -0.05350133 17.67483521 -0.05926514 C21.9671453 -0.06977381 26.25943666 -0.07561747 30.55175781 -0.07910156 C36.05204857 -0.08458844 41.55209205 -0.10862125 47.05230522 -0.13707352 C51.27992476 -0.15569513 55.50748466 -0.16090523 59.73514175 -0.16243744 C61.76293414 -0.16546516 63.79072546 -0.17349771 65.81847763 -0.18662262 C68.65521839 -0.20367429 71.49135381 -0.20180507 74.328125 -0.1953125 C75.16570343 -0.20452728 76.00328186 -0.21374207 76.86624146 -0.22323608 C82.91478309 -0.17986303 86.10473996 1.20280701 90.66845703 5.28613281 C92.65038131 8.79261423 92.59616467 10.85806329 92.33642578 14.78222656 C90.65000713 18.62877697 87.83470769 20.96654494 84.29345703 23.16113281 C81.13045256 23.98457215 78.11294957 23.97383982 74.85742188 23.92163086 C73.47805199 23.93499229 73.47805199 23.93499229 72.07081604 23.94862366 C69.04794183 23.9698388 66.02721495 23.9476396 63.00439453 23.92285156 C60.89645165 23.92435463 58.78850933 23.92778625 56.68057251 23.93305969 C52.27065113 23.93738566 47.86146242 23.92059102 43.45166016 23.88842773 C37.80093631 23.84859875 32.1515822 23.85796926 26.50081444 23.88266277 C22.15128353 23.8968461 17.8020725 23.88675967 13.45256424 23.86915016 C11.36897165 23.86330366 9.28534629 23.86459782 7.20176315 23.87317467 C4.29066948 23.88116939 1.38158329 23.85691915 -1.52929688 23.82397461 C-2.38864334 23.83252472 -3.24798981 23.84107483 -4.13337708 23.84988403 C-8.467008 23.76526775 -10.19363903 23.56209844 -13.71762085 20.8072052 C-16.53446167 17.05966544 -17.10513571 13.90608615 -17.06201172 9.23144531 C-16.42092979 5.49767146 -14.41075337 3.73956599 -11.70654297 1.16113281 C-7.7973495 -0.14193168 -4.07523508 0.00541278 0 0 Z " fill="#FAFBFC" transform="translate(167.70654296875,137.8388671875)"/>
<path d="M0 0 C1.14496456 3.43489369 0.90794449 3.89413498 -0.44921875 7.078125 C-0.79637939 7.89756592 -1.14354004 8.71700684 -1.5012207 9.5612793 C-1.89269287 10.44855713 -2.28416504 11.33583496 -2.6875 12.25 C-3.09250732 13.17659424 -3.49751465 14.10318848 -3.91479492 15.05786133 C-14.01005951 37.76032204 -26.31259674 58.72056518 -42 78 C-42.43183594 78.5347998 -42.86367188 79.06959961 -43.30859375 79.62060547 C-55.03082465 94.03130454 -68.1694821 107.77354651 -83 119 C-84.16208751 119.91326247 -85.32349821 120.82738654 -86.484375 121.7421875 C-133.54323228 158.3937975 -191.19298086 177.5387648 -250.625 177.3125 C-251.64357086 177.31034485 -252.66214172 177.3081897 -253.71157837 177.30596924 C-268.34306193 177.25626044 -282.61652193 176.90646534 -297 174 C-298.03962891 173.80132324 -299.07925781 173.60264648 -300.15039062 173.39794922 C-323.86051295 168.8052311 -346.3140296 161.64112676 -368 151 C-368.86222168 150.57847656 -369.72444336 150.15695312 -370.61279297 149.72265625 C-388.33078454 140.96918268 -404.67180311 130.47233688 -420 118 C-420.5347998 117.56816406 -421.06959961 117.13632812 -421.62060547 116.69140625 C-436.03130454 104.96917535 -449.77354651 91.8305179 -461 77 C-461.91326247 75.83791249 -462.82738654 74.67650179 -463.7421875 73.515625 C-473.12704738 61.45709059 -482.99580879 48.11974637 -489 34 C-488.67 33.34 -488.34 32.68 -488 32 C-487.40574219 33.0415625 -486.81148438 34.083125 -486.19921875 35.15625 C-478.12225434 49.17797894 -469.39145613 62.56983915 -459 75 C-458.25105469 75.93328125 -457.50210938 76.8665625 -456.73046875 77.828125 C-445.37748608 91.81566221 -432.42992075 105.18233756 -418 116 C-416.65217513 117.0492626 -415.30453568 118.09876341 -413.95703125 119.1484375 C-375.36936064 148.78999047 -329.28811157 167.19184027 -281 173 C-280.26507324 173.0942627 -279.53014648 173.18852539 -278.77294922 173.28564453 C-271.35269185 174.14655837 -263.96283222 174.15371044 -256.5 174.125 C-255.83371582 174.12245209 -255.16743164 174.11990417 -254.48095703 174.11727905 C-249.9870396 174.09717369 -245.49366166 174.0532276 -241 174 C-240.12214844 173.99274902 -239.24429688 173.98549805 -238.33984375 173.97802734 C-181.21331419 173.24531751 -124.59340007 149.02896014 -81 113 C-80.42830078 112.53126465 -79.85660156 112.0625293 -79.26757812 111.57958984 C-66.24464531 100.85418113 -54.4515997 89.26244659 -44 76 C-43.29875 75.17757812 -42.5975 74.35515625 -41.875 73.5078125 C-23.60082167 52.03565297 -10.15062478 26.1773761 0 0 Z " fill="#F1F4F6" transform="translate(519,359)"/>
<path d="M0 0 C1.14496456 3.43489369 0.90794449 3.89413498 -0.44921875 7.078125 C-0.79637939 7.89756592 -1.14354004 8.71700684 -1.5012207 9.5612793 C-1.89269287 10.44855713 -2.28416504 11.33583496 -2.6875 12.25 C-3.09250732 13.17659424 -3.49751465 14.10318848 -3.91479492 15.05786133 C-14.01005951 37.76032204 -26.31259674 58.72056518 -42 78 C-42.43183594 78.5347998 -42.86367188 79.06959961 -43.30859375 79.62060547 C-55.03082465 94.03130454 -68.1694821 107.77354651 -83 119 C-84.16208751 119.91326247 -85.32349821 120.82738654 -86.484375 121.7421875 C-120.87631251 148.52821576 -172.88932301 176.94147217 -218 175 C-219.67557379 174.71479595 -221.34817245 174.40044304 -223 174 C-223 173.67 -223 173.34 -223 173 C-222.22736816 172.88519287 -221.45473633 172.77038574 -220.65869141 172.65209961 C-168.79934437 164.81538889 -121.74292173 146.6731042 -81 113 C-80.42830078 112.53126465 -79.85660156 112.0625293 -79.26757812 111.57958984 C-66.24464531 100.85418113 -54.4515997 89.26244659 -44 76 C-43.29875 75.17757812 -42.5975 74.35515625 -41.875 73.5078125 C-23.60082167 52.03565297 -10.15062478 26.1773761 0 0 Z " fill="#EDF0F3" transform="translate(519,359)"/>
<path d="M0 0 C1.14496456 3.43489369 0.90794449 3.89413498 -0.44921875 7.078125 C-0.96995972 8.30728638 -0.96995972 8.30728638 -1.5012207 9.5612793 C-2.08842896 10.89219604 -2.08842896 10.89219604 -2.6875 12.25 C-3.29501099 13.63989136 -3.29501099 13.63989136 -3.91479492 15.05786133 C-14.91849897 39.80324138 -29.00103211 67.11503298 -49 86 C-50.485 86.495 -50.485 86.495 -52 87 C-50.54562723 83.67358844 -48.70099367 81.47709549 -46.1875 78.875 C-25.68395909 56.39996477 -10.86662099 28.21740766 0 0 Z " fill="#DFE4EA" transform="translate(519,359)"/>
<path d="M0 0 C0.66 0.33 1.32 0.66 2 1 C-12.85 15.85 -27.7 30.7 -43 46 C-43.66 45.67 -44.32 45.34 -45 45 C-36.82494304 35.86420151 -28.28832748 27.13230167 -19.6081543 18.4777832 C-17.40619443 16.28127189 -15.20974488 14.07934856 -13.01367188 11.87695312 C-11.61230041 10.47624103 -10.21061955 9.07583839 -8.80859375 7.67578125 C-8.15346298 7.01862625 -7.49833221 6.36147125 -6.823349 5.68440247 C-5.91583641 4.78161812 -5.91583641 4.78161812 -4.98999023 3.8605957 C-4.45913315 3.33053421 -3.92827606 2.80047272 -3.3813324 2.25434875 C-2 1 -2 1 0 0 Z " fill="#EB7824" transform="translate(316,243)"/>
<path d="M0 0 C3.01742464 2.62184763 4.60446707 5.69763111 6.5 9.1875 C13.60121675 21.94139308 22.05645794 34.22205226 31.859375 45.0546875 C33.30163751 46.64911532 34.6611224 48.31782046 36 50 C35.67 50.99 35.34 51.98 35 53 C24.12531322 41.76391879 15.36971529 28.59122085 7.3125 15.25 C6.80750977 14.41686279 6.30251953 13.58372559 5.78222656 12.7253418 C3.32437091 8.57295283 1.29324992 4.6889763 0 0 Z " fill="#E6EAEF" transform="translate(30,391)"/>
<path d="M0 0 C0.99 0.33 1.98 0.66 3 1 C2.28199219 1.71542969 1.56398438 2.43085938 0.82421875 3.16796875 C-0.99622478 4.99344808 -2.80693519 6.82871155 -4.60546875 8.67578125 C-5.88357422 9.98095703 -5.88357422 9.98095703 -7.1875 11.3125 C-8.04730469 12.19550781 -8.90710938 13.07851563 -9.79296875 13.98828125 C-12 16 -12 16 -14 16 C-14.24492187 16.58265625 -14.48984375 17.1653125 -14.7421875 17.765625 C-16.20435874 20.36302236 -17.84740414 21.83975831 -20.125 23.75 C-21.21167969 24.67039062 -21.21167969 24.67039062 -22.3203125 25.609375 C-22.87460937 26.06828125 -23.42890625 26.5271875 -24 27 C-24.66 26.67 -25.32 26.34 -26 26 C-17.42 17.42 -8.84 8.84 0 0 Z " fill="#28425D" transform="translate(409,332)"/>
<path d="M0 0 C0.66 0.33 1.32 0.66 2 1 C-5.29854937 9.37981595 -13.09565702 17.1968506 -21 25 C-21.66 24.67 -22.32 24.34 -23 24 C-18.09775606 18.23790034 -12.94257462 12.81608471 -7.5625 7.5 C-6.83095703 6.77296875 -6.09941406 6.0459375 -5.34570312 5.296875 C-3.56610176 3.52890501 -1.78419082 1.76333622 0 0 Z " fill="#2C455E" transform="translate(89,67)"/>
<path d="M0 0 C0 4.94337631 -3.72504859 7.53376824 -7 11 C-7.84175781 11.89460938 -8.68351562 12.78921875 -9.55078125 13.7109375 C-17.08843994 21.50543494 -17.08843994 21.50543494 -21 22 C-18.08089124 18.38586534 -15.16037575 15.01731651 -11.5625 12.0625 C-7.57004544 8.77250404 -4.32982487 4.94123339 -1 1 C-0.67 0.67 -0.34 0.34 0 0 Z " fill="#324A64" transform="translate(382,359)"/>
<path d="M0 0 C0 3.61770393 -0.63458538 4.08448793 -3 6.6875 C-3.63292969 7.38746094 -4.26585937 8.08742188 -4.91796875 8.80859375 C-7.63457902 11.66791526 -10.44277334 14.42299076 -13.30078125 17.140625 C-15.00281712 19.00308264 -15.99673994 20.69810382 -17 23 C-17.73999023 20.77661133 -17.73999023 20.77661133 -18 18 C-16.46118164 15.7800293 -16.46118164 15.7800293 -14.16015625 13.57421875 C-13.34482422 12.77822266 -12.52949219 11.98222656 -11.68945312 11.16210938 C-10.38911133 9.93717773 -10.38911133 9.93717773 -9.0625 8.6875 C-8.19947266 7.85154297 -7.33644531 7.01558594 -6.44726562 6.15429688 C-4.3109645 4.08881236 -2.16195651 2.03856078 0 0 Z " fill="#ED7724" transform="translate(366,315)"/>
<path d="M0 0 C0.33 0.99 0.66 1.98 1 3 C-3.95 7.95 -8.9 12.9 -14 18 C-14.99 17.67 -15.98 17.34 -17 17 C-11.39 11.39 -5.78 5.78 0 0 Z " fill="#1E3C57" transform="translate(338,403)"/>
<path d="M0 0 C1.27617187 0.14018555 1.27617187 0.14018555 2.578125 0.28320312 C3.46757812 0.38697266 4.35703125 0.49074219 5.2734375 0.59765625 C6.170625 0.69755859 7.0678125 0.79746094 7.9921875 0.90039062 C10.21159599 1.14830328 12.43022727 1.40177619 14.6484375 1.66015625 C14.6484375 1.99015625 14.6484375 2.32015625 14.6484375 2.66015625 C0.27005912 4.06556166 0.27005912 4.06556166 -5.3515625 2.66015625 C-5.6815625 2.00015625 -6.0115625 1.34015625 -6.3515625 0.66015625 C-3.89212003 -0.56956498 -2.71267194 -0.30743615 0 0 Z " fill="#F3F5F7" transform="translate(233.3515625,531.33984375)"/>
<path d="M0 0 C0.66 0.33 1.32 0.66 2 1 C-1.63 4.63 -5.26 8.26 -9 12 C-9.99 11.67 -10.98 11.34 -12 11 C-10.37807179 9.35113941 -8.75236228 7.7059976 -7.125 6.0625 C-6.22007812 5.14597656 -5.31515625 4.22945313 -4.3828125 3.28515625 C-2 1 -2 1 0 0 Z " fill="#29435E" transform="translate(359,383)"/>
<path d="M0 0 C-0.33 0.99 -0.66 1.98 -1 3 C-2.92578125 3.765625 -2.92578125 3.765625 -5.3125 4.25 C-6.48232422 4.50523437 -6.48232422 4.50523437 -7.67578125 4.765625 C-10.07651867 5.00771617 -11.71809588 4.7310448 -14 4 C-4.58997722 -0.59225513 -4.58997722 -0.59225513 0 0 Z " fill="#EEF1F4" transform="translate(334,526)"/>
<path d="M0 0 C0.99 0.33 1.98 0.66 3 1 C-4.11389522 8.66742597 -4.11389522 8.66742597 -9 10 C-8.06409496 8.8944811 -7.12620142 7.79064547 -6.1875 6.6875 C-5.66542969 6.07261719 -5.14335937 5.45773437 -4.60546875 4.82421875 C-3.12827531 3.14575321 -1.59960869 1.56117966 0 0 Z " fill="#314A64" transform="translate(392,349)"/>
<path d="M0 0 C1.66413655 3.3282731 0.81867406 6.99733973 0.5625 10.625 C0.51029297 11.42679687 0.45808594 12.22859375 0.40429688 13.0546875 C0.27451629 15.03679103 0.13790265 17.01844499 0 19 C-0.33 19 -0.66 19 -1 19 C-1.04898438 18.08476562 -1.09796875 17.16953125 -1.1484375 16.2265625 C-1.22320312 15.03804688 -1.29796875 13.84953125 -1.375 12.625 C-1.44460937 11.44164062 -1.51421875 10.25828125 -1.5859375 9.0390625 C-1.70217346 5.89437681 -1.70217346 5.89437681 -4 4 C-2.68 2.68 -1.36 1.36 0 0 Z " fill="#ED9853" transform="translate(248,310)"/>
<path d="M0 0 C0.66 0.33 1.32 0.66 2 1 C-3.14285714 6.57142857 -3.14285714 6.57142857 -7 7 C-7 6.01 -7 5.02 -7 4 C-1.7265625 0.77734375 -1.7265625 0.77734375 0 0 Z " fill="#EAEDF1" transform="translate(409,493)"/>
<path d="M0 0 C-0.99 0.33 -1.98 0.66 -3 1 C-3.33 1.66 -3.66 2.32 -4 3 C-5.98 3 -7.96 3 -10 3 C-10 2.01 -10 1.02 -10 0 C-6.33694766 -0.74926071 -3.57644848 -1.2380014 0 0 Z " fill="#DCE2E6" transform="translate(324,529)"/>
<path d="M0 0 C1.22589844 0.15275391 1.22589844 0.15275391 2.4765625 0.30859375 C3.41628906 0.43427734 3.41628906 0.43427734 4.375 0.5625 C4.375 0.8925 4.375 1.2225 4.375 1.5625 C1.075 1.8925 -2.225 2.2225 -5.625 2.5625 C-5.955 1.9025 -6.285 1.2425 -6.625 0.5625 C-4.10446405 -0.69776798 -2.7707902 -0.35624445 0 0 Z " fill="#DFE4E9" transform="translate(233.625,531.4375)"/>
<path d="M0 0 C0.66 0.33 1.32 0.66 2 1 C-0.52788007 3.79872437 -2.20411134 5.45773019 -6 6 C-4.98545548 3.4636387 -4.3146444 2.20648539 -2 0.6875 C-1.34 0.460625 -0.68 0.23375 0 0 Z " fill="#E2E7EC" transform="translate(391,503)"/>
<path d="M0 0 C1.60080151 4.00200378 0.29279692 7.04556236 -1 11 C-1.91058531 7.92677456 -2.08886184 5.19902639 -2 2 C-1.34 2 -0.68 2 0 2 C0 1.34 0 0.68 0 0 Z " fill="#8798A7" transform="translate(527,333)"/>
</svg>
