<svg version="1.1" id="Layer_1" xmlns="http://www.w3.org/2000/svg" xmlns:xlink="http://www.w3.org/1999/xlink" x="0px" y="0px"
	 width="100%" viewBox="0 0 1024 1024" enable-background="new 0 0 1024 1024" xml:space="preserve">
<path fill="#FEFEFE" opacity="1.000000" stroke="none" 
	d="
M700.000000,1025.000000 
	C466.666656,1025.000000 233.833328,1025.000000 1.000000,1025.000000 
	C1.000000,683.666687 1.000000,342.333344 1.000000,1.000000 
	C342.333344,1.000000 683.666687,1.000000 1025.000000,1.000000 
	C1025.000000,342.333344 1025.000000,683.666687 1025.000000,1025.000000 
	C916.833313,1025.000000 808.666687,1025.000000 700.000000,1025.000000 
M474.281036,247.104874 
	C472.581512,247.760651 470.882019,248.416428 468.318512,248.967300 
	C459.878815,250.662903 451.439148,252.358505 442.239105,254.022125 
	C439.826935,254.743591 437.414764,255.465057 434.438202,256.135376 
	C433.950592,256.402802 433.462952,256.670227 432.234192,256.920319 
	C430.157593,257.685059 428.081024,258.449799 425.272217,259.231842 
	C420.434662,261.132019 415.500763,262.821381 410.780762,264.978699 
	C402.391327,268.813171 394.131500,272.931244 385.417206,276.903290 
	C385.130341,276.947205 384.918640,277.097229 384.075958,277.582245 
	C375.069519,283.394562 366.063049,289.206909 356.416748,295.171783 
	C354.562317,296.626221 352.707916,298.080688 350.281525,299.747620 
	C349.856903,300.165924 349.432312,300.584229 348.417206,301.164551 
	C347.854034,301.738129 347.290863,302.311737 346.105957,303.055725 
	C344.646027,304.335052 343.186096,305.614349 341.316742,306.936523 
	C341.033295,307.056610 340.880829,307.270172 340.308777,307.779877 
	C339.913239,308.199066 339.517670,308.618225 338.556549,309.204987 
	C338.020050,309.756500 337.483551,310.308014 336.347290,311.047974 
	C335.792877,311.659088 335.238464,312.270172 334.079315,313.125031 
	C300.276672,343.388458 275.605743,379.839050 260.441681,422.595459 
	C240.515167,478.779907 239.089325,535.606506 257.376495,592.281677 
	C278.732208,658.466736 320.049805,709.337524 380.604187,743.514954 
	C453.325684,784.559570 529.704773,790.414429 607.783264,761.143555 
	C674.089172,736.286133 722.913452,690.902588 754.395264,627.489868 
	C779.218018,577.490417 786.616089,524.448853 777.654297,469.486481 
	C768.164978,411.289185 741.792480,361.473572 699.455017,320.434357 
	C689.115417,310.411835 677.237915,301.975830 665.657654,292.226776 
	C664.048828,291.253571 662.446838,290.268860 660.829895,289.309296 
	C655.551697,286.176880 650.352356,282.898682 644.963867,279.968536 
	C639.093933,276.776581 633.084045,273.833282 627.065979,270.924683 
	C621.112305,268.047272 615.191345,265.040955 609.036316,262.658844 
	C603.029236,260.333984 596.616455,259.058563 590.606445,256.739990 
	C574.878723,250.672516 558.750916,246.907043 541.219482,246.737473 
	C537.148499,246.165253 533.077515,245.593033 528.359558,244.828094 
	C527.914001,244.859619 527.468506,244.891144 526.255188,244.642319 
	C513.163330,245.074188 500.071442,245.506058 486.318207,245.842133 
	C485.881866,245.919022 485.445496,245.995911 484.202209,245.939240 
	C482.128387,246.273285 480.054565,246.607330 477.234802,246.875183 
	C476.498932,246.995895 475.763062,247.116608 474.281036,247.104874 
z"/>
<path fill="#153250" opacity="1.000000" stroke="none" 
	d="
M666.067505,292.810364 
	C677.237915,301.975830 689.115417,310.411835 699.455017,320.434357 
	C741.792480,361.473572 768.164978,411.289185 777.654297,469.486481 
	C786.616089,524.448853 779.218018,577.490417 754.395264,627.489868 
	C722.913452,690.902588 674.089172,736.286133 607.783264,761.143555 
	C529.704773,790.414429 453.325684,784.559570 380.604187,743.514954 
	C320.049805,709.337524 278.732208,658.466736 257.376495,592.281677 
	C239.089325,535.606506 240.515167,478.779907 260.441681,422.595459 
	C275.605743,379.839050 300.276672,343.388458 334.740265,312.999695 
	C335.916504,312.202759 336.431763,311.531128 336.947021,310.859497 
	C337.483551,310.308014 338.020050,309.756500 339.150879,309.067505 
	C340.116608,308.479095 340.487976,308.028168 340.859314,307.577271 
	C340.880829,307.270172 341.033295,307.056610 341.901947,306.973511 
	C343.687134,308.558563 345.090485,309.991669 346.044373,311.678894 
	C347.980774,315.104034 349.674042,318.666565 351.302246,322.480865 
	C344.929260,329.433044 342.136719,337.342041 342.147217,346.389648 
	C342.188904,382.297150 342.184814,418.204712 342.167480,454.112274 
	C342.161560,466.406372 342.067322,478.700409 341.732208,491.236511 
	C341.640411,493.321289 341.829803,495.164032 342.124329,497.464844 
	C342.284210,536.585388 342.338959,575.247864 342.162842,614.035278 
	C342.175781,614.462585 342.419556,614.764954 342.810364,615.377625 
	C346.760956,632.027954 357.551514,643.214172 373.227936,644.491333 
	C386.902222,645.605286 400.739075,644.723450 414.227112,644.723450 
	C414.227112,636.979065 414.227112,629.438416 414.227112,621.702759 
	C402.257721,621.702759 390.805634,621.724182 379.353699,621.695374 
	C371.356995,621.675293 367.000763,617.806641 366.216248,609.892029 
	C366.245361,609.528503 366.117584,609.263245 365.858704,608.545288 
	C365.786804,601.069824 365.846008,594.046997 366.174011,586.843933 
	C366.258179,585.766541 366.073547,584.869446 365.763062,583.519653 
	C365.659393,574.446899 365.670044,565.826782 365.706055,557.206726 
	C365.778778,539.809753 365.865265,522.412781 366.218811,504.815491 
	C366.663879,503.742188 366.836212,502.869263 367.368286,502.036804 
	C368.549438,502.609650 369.308777,503.404510 370.205902,503.616577 
	C371.788940,503.990875 373.455994,504.009796 375.087860,504.177490 
	C375.184082,502.804108 375.876251,500.791260 375.242737,500.200836 
	C374.180603,499.210907 372.285339,498.820282 370.718567,498.761047 
	C369.499420,498.714905 368.246674,499.556580 367.005554,499.571594 
	C366.646667,496.754059 366.291077,494.368591 365.821289,491.542145 
	C365.789307,488.071472 365.871490,485.041779 366.259949,481.725586 
	C366.360352,475.954926 366.154480,470.470825 365.838135,464.530029 
	C365.713348,457.604340 365.669312,451.135254 365.690125,444.666382 
	C365.761536,422.449127 365.855652,400.231964 366.202606,377.833984 
	C366.288391,376.763641 366.112671,375.874146 365.818481,374.531494 
	C365.773895,369.051788 365.847809,364.025146 366.310730,358.998596 
	C369.603088,360.796814 372.506409,362.594940 375.781586,364.623352 
	C376.960358,363.381256 378.211700,361.513306 379.939697,360.358795 
	C383.305511,358.110016 387.002258,353.255951 391.053345,357.051300 
	C395.623993,361.333435 399.373322,361.706085 404.171112,358.475983 
	C404.554260,358.217987 405.166382,358.047913 405.597443,358.150574 
	C413.430115,360.015839 419.496155,355.600800 426.085205,352.713409 
	C428.803894,351.522034 432.281769,350.858368 435.090332,351.462097 
	C437.294647,351.935913 439.000610,354.727875 440.927948,356.490021 
	C439.380432,358.124847 437.803070,359.732758 436.295227,361.403412 
	C435.169922,362.650208 433.314972,363.954987 433.277802,365.276001 
	C433.236420,366.746063 434.572693,368.976593 435.890198,369.556671 
	C437.163239,370.117157 439.855896,369.564636 440.734589,368.509583 
	C443.270416,365.465057 445.910461,366.135132 448.739746,367.408783 
	C455.988373,370.671783 461.679871,367.533539 466.637054,362.725861 
	C471.206207,358.294556 471.703735,358.002563 476.536835,362.097687 
	C477.929321,363.277588 479.070679,364.757782 480.481628,365.911407 
	C487.626862,371.753571 495.063599,369.386383 498.036133,360.734344 
	C498.781891,358.563782 500.783417,355.917725 502.773315,355.293823 
	C505.765381,354.355743 509.024536,354.662903 511.672943,357.859802 
	C516.411865,363.580231 522.501831,366.271912 530.216858,364.053894 
	C533.027405,363.245880 536.092957,363.324951 539.137695,363.458862 
	C539.556885,370.120911 539.880615,376.323456 539.970703,382.881897 
	C538.477356,383.477478 537.058594,384.215637 535.984802,383.872955 
	C530.465149,382.111664 525.296265,383.386597 519.993225,384.900543 
	C517.767456,385.536011 515.186707,384.812683 512.849792,385.202057 
	C509.429871,385.771973 506.084198,386.787262 502.411560,387.402435 
	C498.526031,385.829346 494.949097,383.327454 491.343414,383.285309 
	C464.215088,382.968353 437.081085,383.133759 409.948883,383.152588 
	C397.914825,383.160919 393.470154,389.421204 396.856934,401.005859 
	C394.401733,401.503235 392.357727,401.994507 389.848663,402.597565 
	C390.990906,406.506073 392.114960,409.399445 396.629852,410.295013 
	C398.645020,410.694763 401.748535,413.341644 401.722900,414.926025 
	C401.624237,421.024536 404.977020,423.197083 410.053253,423.958374 
	C413.360809,424.454437 414.173584,426.057709 412.582703,428.999939 
	C410.112579,429.604004 408.060760,430.206940 405.672607,430.941711 
	C402.738220,432.766144 400.140167,434.458710 397.163910,436.297302 
	C396.599487,437.198639 396.413269,437.953979 396.251007,439.102448 
	C396.722229,442.593079 397.169525,445.690613 397.187012,448.841064 
	C394.608917,448.218201 392.499390,447.257843 390.299866,446.958374 
	C388.594543,446.726166 386.093994,446.658783 385.125427,447.659149 
	C380.573578,452.360474 376.043549,457.190613 372.349121,462.555542 
	C371.068207,464.415741 371.377441,468.416809 372.559784,470.556061 
	C373.335266,471.959198 376.976990,472.162506 379.338989,472.175110 
	C381.033813,472.184204 382.693085,470.674988 384.448029,470.440582 
	C385.640259,470.281372 387.719238,470.797150 388.117737,471.627319 
	C390.712463,477.032715 395.667480,478.749725 400.537903,480.659546 
	C398.964081,482.975983 397.380096,484.891663 396.316742,487.062378 
	C394.058655,491.672180 397.832001,495.078857 398.632904,499.001770 
	C397.165680,499.726776 396.107361,500.449890 395.049042,501.173004 
	C395.861053,502.206268 396.473053,503.721466 397.531586,504.160706 
	C399.148071,504.831482 401.181549,504.463409 402.841034,505.072784 
	C405.215851,505.944824 407.410553,507.305481 409.686646,508.448547 
	C412.054749,509.637787 414.325562,511.170013 416.829193,511.896576 
	C419.160706,512.573181 421.766663,512.695312 424.208160,512.504272 
	C427.370575,512.256897 430.482544,511.411865 433.630157,510.911774 
	C435.575745,510.602692 437.742645,509.818237 439.473206,510.347992 
	C446.947937,512.636230 454.099274,517.149231 462.205841,515.403320 
	C469.623810,513.805664 478.853546,516.384277 483.633820,506.745636 
	C485.160309,507.790588 486.396088,508.787506 487.763824,509.546539 
	C493.552368,512.758911 499.380157,515.900574 505.051575,519.376709 
	C497.033569,527.593201 489.166107,535.509460 481.279877,543.407043 
	C466.802521,557.905151 451.279572,571.516418 438.085541,587.100159 
	C420.608093,607.743103 415.887421,632.063171 425.847992,657.749878 
	C436.532532,685.303650 456.976562,701.951416 486.389618,705.819702 
	C510.784119,709.027893 531.332336,700.128784 548.624023,682.794983 
	C582.504883,648.831604 616.557678,615.039368 650.621887,581.259583 
	C672.531677,559.532654 678.495117,523.393677 664.367065,496.751740 
	C653.035278,475.382965 635.128845,462.778839 612.042847,457.037659 
	C612.692383,456.524750 613.145142,456.144348 613.578552,456.165253 
	C618.181824,456.387268 622.780701,456.802338 627.383972,456.849762 
	C628.524658,456.861511 629.977783,456.001434 630.771973,455.092102 
	C634.224304,451.139221 633.817871,436.292908 629.984375,432.598145 
	C626.990723,429.712891 626.051697,426.513977 625.878296,422.438171 
	C625.585266,415.548676 624.611938,408.680969 623.745544,401.826752 
	C623.431213,399.339935 622.173706,397.431061 619.042969,397.513763 
	C619.021667,395.775024 619.081604,394.432648 619.583496,393.072418 
	C620.967346,392.561279 622.440613,392.290985 622.757690,391.535522 
	C624.027344,388.509949 624.864075,385.306580 625.997986,382.219299 
	C628.012878,376.733673 626.595764,372.630341 621.496155,369.640320 
	C620.137207,368.843475 619.121582,367.388000 618.089294,366.120087 
	C614.670959,361.921295 611.361755,357.633301 607.924438,353.450348 
	C605.073730,349.981201 601.359619,349.350037 597.159668,350.414398 
	C595.569336,350.817444 593.918945,350.983093 592.018066,351.117523 
	C590.578369,349.758423 589.416382,348.538727 588.614990,347.135437 
	C588.979858,345.533722 588.984131,344.115631 588.988342,342.697540 
	C587.665466,343.128784 586.342651,343.559998 584.731384,343.879517 
	C583.649841,342.839661 582.856689,341.911499 582.412109,340.983398 
	C583.191223,340.196838 583.621704,339.410248 584.052185,338.623657 
	C581.789917,337.844635 579.527710,337.065613 576.991333,336.147095 
	C575.117126,334.346680 573.517029,332.685791 572.203735,330.833527 
	C576.654724,324.976715 576.632812,324.998779 571.429260,319.839966 
	C570.624390,319.041992 570.117615,317.940582 569.486023,316.970978 
	C564.830933,309.824463 560.065735,302.923035 550.251587,302.479889 
	C548.800049,302.414368 547.415527,300.863617 546.336426,299.853210 
	C551.745361,299.338501 552.102844,295.234955 552.816406,291.637451 
	C553.109741,290.158325 552.869324,287.315918 552.295959,287.155853 
	C550.508728,286.656891 547.443787,286.379395 546.674500,287.388458 
	C544.141907,290.710480 541.940674,290.823090 539.440613,287.865387 
	C536.827820,284.774353 537.821228,282.371277 540.848938,279.914215 
	C542.395508,278.659119 543.183044,276.295898 543.944336,274.293152 
	C544.750183,272.173218 544.590576,269.538879 545.778076,267.740143 
	C548.918213,262.983673 552.558716,258.557617 556.333374,254.000015 
	C557.111084,254.000000 557.555542,254.000000 558.090820,254.395493 
	C563.121155,255.193985 568.060547,255.596985 573.369629,256.004547 
	C577.425110,258.438232 581.070801,260.931458 584.812073,263.272034 
	C586.994751,264.637604 589.656128,267.175720 591.539795,266.742279 
	C599.256042,264.966736 605.924500,266.551147 612.238098,270.910858 
	C612.893616,271.363525 613.791565,271.483093 614.591187,271.706268 
	C620.469727,273.346832 626.394165,274.840363 632.210876,276.675903 
	C634.362244,277.354767 637.333008,278.343536 638.093872,280.022919 
	C641.532227,287.611694 649.553528,289.811676 654.880920,295.119537 
	C658.292603,298.518707 663.318848,297.142212 666.067505,292.810364 
M516.180481,377.969391 
	C517.164795,377.429688 518.222839,376.990234 519.119324,376.331055 
	C521.557007,374.538666 521.418457,371.995544 519.437622,370.488068 
	C518.204651,369.549683 515.087952,369.427917 513.943604,370.345306 
	C510.635345,372.997406 507.897675,376.361145 504.587311,379.808594 
	C505.773865,381.806305 507.384399,382.965424 510.293030,380.344788 
	C511.621735,379.147644 513.674194,378.753754 516.180481,377.969391 
z"/>
<path fill="#153250" opacity="1.000000" stroke="none" 
	d="
M346.727722,302.885345 
	C347.290863,302.311737 347.854034,301.738129 349.040375,301.041016 
	C350.060211,300.456696 350.456848,299.995941 350.853516,299.535156 
	C352.707916,298.080688 354.562317,296.626221 357.143860,295.082214 
	C359.487488,294.664276 361.262695,293.733795 362.693268,294.110901 
	C369.191772,295.823975 374.026337,293.028900 379.684662,290.162079 
	C385.173096,287.381256 387.670898,285.552765 384.379578,279.750519 
	C384.069305,279.203583 384.627228,278.164124 384.782104,277.353302 
	C384.918640,277.097229 385.130341,276.947205 386.023438,276.932281 
	C389.915192,276.961273 393.200684,276.961273 396.556549,276.961273 
	C397.524994,271.431641 399.713470,269.715393 403.343597,271.916260 
	C414.944397,278.949615 425.631653,272.959290 426.004425,259.214569 
	C428.081024,258.449799 430.157593,257.685059 432.759094,257.161285 
	C433.856873,256.997009 434.429718,256.591766 435.002594,256.186523 
	C437.414764,255.465057 439.826935,254.743591 442.626190,254.416901 
	C444.690277,259.660522 448.866455,259.765411 452.657410,259.110992 
	C457.525848,258.270569 462.236420,256.507904 467.009033,255.121979 
	C473.958557,253.103912 480.152649,256.242523 485.469299,259.462769 
	C490.686188,262.622528 494.409882,268.178253 499.011871,272.441742 
	C503.725372,276.808472 505.349609,281.945129 502.482635,287.638062 
	C500.482513,291.609802 501.545929,294.178772 504.323029,296.859985 
	C506.612640,299.070496 506.632843,301.436768 504.610626,303.932770 
	C503.912964,304.793854 503.167938,305.896637 503.094513,306.934967 
	C502.781311,311.363403 500.630341,310.498993 497.633759,309.424744 
	C494.287750,308.225250 490.704742,307.549194 487.167755,307.051147 
	C481.319061,306.227631 475.392670,305.937225 469.557770,305.039886 
	C462.718445,303.988068 458.812592,305.813629 455.534210,311.995361 
	C449.376495,311.996674 443.687042,311.995270 437.917786,311.616089 
	C432.668396,309.507782 427.529175,307.674652 422.304749,306.129486 
	C421.199799,305.802704 419.780579,306.515961 418.510864,306.773071 
	C414.874939,307.509430 411.195312,308.087830 407.622284,309.057678 
	C405.009064,309.766968 402.537262,310.997131 399.533630,311.996826 
	C390.042816,311.997833 381.020782,311.997101 371.999237,311.550690 
	C372.000336,302.134460 370.169220,299.379852 363.681183,300.165588 
	C360.409668,300.561798 357.259735,302.456451 354.200684,303.968628 
	C351.334015,305.385742 348.909637,305.396729 346.727722,302.885345 
z"/>
<path fill="#183552" opacity="1.000000" stroke="none" 
	d="
M456.002441,311.992676 
	C458.812592,305.813629 462.718445,303.988068 469.557770,305.039886 
	C475.392670,305.937225 481.319061,306.227631 487.167755,307.051147 
	C490.704742,307.549194 494.287750,308.225250 497.633759,309.424744 
	C500.630341,310.498993 502.781311,311.363403 503.094513,306.934967 
	C503.167938,305.896637 503.912964,304.793854 504.610626,303.932770 
	C506.632843,301.436768 506.612640,299.070496 504.323029,296.859985 
	C501.545929,294.178772 500.482513,291.609802 502.482635,287.638062 
	C505.349609,281.945129 503.725372,276.808472 499.011871,272.441742 
	C494.409882,268.178253 490.686188,262.622528 485.469299,259.462769 
	C480.152649,256.242523 473.958557,253.103912 467.009033,255.121979 
	C462.236420,256.507904 457.525848,258.270569 452.657410,259.110992 
	C448.866455,259.765411 444.690277,259.660522 443.006348,254.432892 
	C451.439148,252.358505 459.878815,250.662903 469.140259,249.054901 
	C471.650391,248.507431 473.338806,247.872375 475.027191,247.237320 
	C475.763062,247.116608 476.498932,246.995895 477.873901,247.181671 
	C480.678375,247.016373 482.843750,246.544586 485.009155,246.072815 
	C485.445496,245.995911 485.881866,245.919022 486.928345,246.169373 
	C488.334656,246.644928 489.134827,246.940674 489.926422,246.919388 
	C500.917847,246.623413 511.909302,246.315994 522.897217,245.915115 
	C524.282715,245.864563 525.648193,245.266861 527.022949,244.922668 
	C527.468506,244.891144 527.914001,244.859619 528.928955,245.216217 
	C533.603882,246.094009 537.709412,246.583679 541.814941,247.073334 
	C558.750916,246.907043 574.878723,250.672516 590.606445,256.739990 
	C596.616455,259.058563 603.029236,260.333984 609.036316,262.658844 
	C615.191345,265.040955 621.112305,268.047272 627.065979,270.924683 
	C633.084045,273.833282 639.093933,276.776581 644.963867,279.968536 
	C650.352356,282.898682 655.551697,286.176880 660.829895,289.309296 
	C662.446838,290.268860 664.048828,291.253571 665.862549,292.518555 
	C663.318848,297.142212 658.292603,298.518707 654.880920,295.119537 
	C649.553528,289.811676 641.532227,287.611694 638.093872,280.022919 
	C637.333008,278.343536 634.362244,277.354767 632.210876,276.675903 
	C626.394165,274.840363 620.469727,273.346832 614.591187,271.706268 
	C613.791565,271.483093 612.893616,271.363525 612.238098,270.910858 
	C605.924500,266.551147 599.256042,264.966736 591.539795,266.742279 
	C589.656128,267.175720 586.994751,264.637604 584.812073,263.272034 
	C581.070801,260.931458 577.425110,258.438232 573.278931,255.609039 
	C567.879028,254.805969 562.939514,254.402985 558.000000,254.000000 
	C557.555542,254.000000 557.111084,254.000000 556.089905,253.717972 
	C548.022339,250.799438 548.108337,250.842926 544.866516,257.744385 
	C544.091492,259.394257 542.502441,260.661743 540.618469,262.900543 
	C538.759949,259.958984 537.577148,257.651581 535.975891,255.684860 
	C534.594788,253.988541 532.915344,251.753860 531.052917,251.396118 
	C527.365112,250.687775 523.425049,250.805283 519.663879,251.234894 
	C518.376038,251.382004 516.093689,253.891312 516.340027,254.625885 
	C518.092285,259.851807 519.507141,265.550171 522.710510,269.844086 
	C527.263367,275.946991 527.812317,275.436310 523.128540,281.505310 
	C522.230042,282.669464 521.248169,285.024841 521.780334,285.754211 
	C522.660767,286.961060 524.911133,288.132019 526.286926,287.852844 
	C533.542664,286.380402 537.643250,289.685852 540.017395,296.063690 
	C541.065308,298.878845 542.785217,300.541870 546.000000,300.000000 
	C547.415527,300.863617 548.800049,302.414368 550.251587,302.479889 
	C560.065735,302.923035 564.830933,309.824463 569.486023,316.970978 
	C570.117615,317.940582 570.624390,319.041992 571.429260,319.839966 
	C576.632812,324.998779 576.654724,324.976715 571.895264,330.710938 
	C563.838013,324.179962 558.511536,314.534821 546.864014,313.358459 
	C545.038025,312.658417 543.334656,312.047150 541.630066,312.043457 
	C513.087646,311.981567 484.545013,311.995544 456.002441,311.992676 
z"/>
<path fill="#183552" opacity="1.000000" stroke="none" 
	d="
M346.416840,302.970520 
	C348.909637,305.396729 351.334015,305.385742 354.200684,303.968628 
	C357.259735,302.456451 360.409668,300.561798 363.681183,300.165588 
	C370.169220,299.379852 372.000336,302.134460 372.005554,311.970093 
	C372.015717,313.114746 372.020050,313.394348 371.644226,313.775146 
	C363.537903,313.951599 356.951630,316.746979 351.467560,322.172485 
	C349.674042,318.666565 347.980774,315.104034 346.044373,311.678894 
	C345.090485,309.991669 343.687134,308.558563 342.106659,306.952057 
	C343.186096,305.614349 344.646027,304.335052 346.416840,302.970520 
z"/>
<path fill="#183552" opacity="1.000000" stroke="none" 
	d="
M425.638306,259.223206 
	C425.631653,272.959290 414.944397,278.949615 403.343597,271.916260 
	C399.713470,269.715393 397.524994,271.431641 396.556549,276.961273 
	C393.200684,276.961273 389.915192,276.961273 386.223572,276.945984 
	C394.131500,272.931244 402.391327,268.813171 410.780762,264.978699 
	C415.500763,262.821381 420.434662,261.132019 425.638306,259.223206 
z"/>
<path fill="#183552" opacity="1.000000" stroke="none" 
	d="
M384.429016,277.467773 
	C384.627228,278.164124 384.069305,279.203583 384.379578,279.750519 
	C387.670898,285.552765 385.173096,287.381256 379.684662,290.162079 
	C374.026337,293.028900 369.191772,295.823975 362.693268,294.110901 
	C361.262695,293.733795 359.487488,294.664276 357.463806,295.005920 
	C366.063049,289.206909 375.069519,283.394562 384.429016,277.467773 
z"/>
<path fill="#304961" opacity="1.000000" stroke="none" 
	d="
M526.639038,244.782501 
	C525.648193,245.266861 524.282715,245.864563 522.897217,245.915115 
	C511.909302,246.315994 500.917847,246.623413 489.926422,246.919388 
	C489.134827,246.940674 488.334656,246.644928 487.259033,246.217255 
	C500.071442,245.506058 513.163330,245.074188 526.639038,244.782501 
z"/>
<path fill="#304961" opacity="1.000000" stroke="none" 
	d="
M541.517212,246.905396 
	C537.709412,246.583679 533.603882,246.094009 529.252441,245.312592 
	C533.077515,245.593033 537.148499,246.165253 541.517212,246.905396 
z"/>
<path fill="#304961" opacity="1.000000" stroke="none" 
	d="
M484.605682,246.006027 
	C482.843750,246.544586 480.678375,247.016373 478.246857,247.214752 
	C480.054565,246.607330 482.128387,246.273285 484.605682,246.006027 
z"/>
<path fill="#304961" opacity="1.000000" stroke="none" 
	d="
M474.654114,247.171097 
	C473.338806,247.872375 471.650391,248.507431 469.572235,249.107346 
	C470.882019,248.416428 472.581512,247.760651 474.654114,247.171097 
z"/>
<path fill="#183552" opacity="1.000000" stroke="none" 
	d="
M434.720398,256.160950 
	C434.429718,256.591766 433.856873,256.997009 433.129669,257.169922 
	C433.462952,256.670227 433.950592,256.402802 434.720398,256.160950 
z"/>
<path fill="#183552" opacity="1.000000" stroke="none" 
	d="
M336.647156,310.953735 
	C336.431763,311.531128 335.916504,312.202759 335.042633,312.877808 
	C335.238464,312.270172 335.792877,311.659088 336.647156,310.953735 
z"/>
<path fill="#183552" opacity="1.000000" stroke="none" 
	d="
M350.567505,299.641418 
	C350.456848,299.995941 350.060211,300.456696 349.335632,300.960022 
	C349.432312,300.584229 349.856903,300.165924 350.567505,299.641418 
z"/>
<path fill="#183552" opacity="1.000000" stroke="none" 
	d="
M340.584045,307.678558 
	C340.487976,308.028168 340.116608,308.479095 339.433655,308.983704 
	C339.517670,308.618225 339.913239,308.199066 340.584045,307.678558 
z"/>
<path fill="#FDFCFB" opacity="1.000000" stroke="none" 
	d="
M611.837097,457.356506 
	C635.128845,462.778839 653.035278,475.382965 664.367065,496.751740 
	C678.495117,523.393677 672.531677,559.532654 650.621887,581.259583 
	C616.557678,615.039368 582.504883,648.831604 548.624023,682.794983 
	C531.332336,700.128784 510.784119,709.027893 486.389618,705.819702 
	C456.976562,701.951416 436.532532,685.303650 425.847992,657.749878 
	C415.887421,632.063171 420.608093,607.743103 438.085541,587.100159 
	C451.279572,571.516418 466.802521,557.905151 481.279877,543.407043 
	C489.166107,535.509460 497.033569,527.593201 505.275513,519.329834 
	C505.933960,518.804138 506.079529,518.549805 506.379364,518.090149 
	C507.536682,517.009705 508.392883,516.050598 509.537720,514.979370 
	C510.910889,513.640503 511.995422,512.413757 513.391846,511.052246 
	C516.083984,508.413513 518.464233,505.909607 521.121704,503.262756 
	C525.866272,498.664062 530.252869,494.123505 534.819702,489.772125 
	C541.788025,483.132721 548.347595,475.904816 556.030762,470.208099 
	C572.593689,457.927399 591.604004,454.573151 611.837097,457.356506 
M492.329681,556.118347 
	C480.516571,567.856506 469.016388,579.931519 456.822968,591.260376 
	C433.828339,612.624512 434.789642,646.815979 450.078522,666.603638 
	C469.879578,692.231201 510.198730,695.904297 533.114929,673.050415 
	C540.542480,665.643066 547.925537,658.191040 555.307800,650.738525 
	C564.798767,641.157166 574.038452,631.588074 579.488159,618.724426 
	C589.640442,594.760925 583.189941,567.601562 562.829956,552.226440 
	C555.695251,546.838501 547.366211,548.761963 543.721802,556.639099 
	C541.190308,562.110779 542.367004,567.709656 546.910767,571.904358 
	C555.758423,580.072266 561.065308,589.527588 557.928711,602.083557 
	C555.765076,610.744690 551.160400,617.784607 544.691040,623.953552 
	C534.451294,633.717834 524.890808,644.203125 514.518127,653.817200 
	C502.002075,665.417847 484.060089,664.718933 472.816589,652.851135 
	C461.728119,641.147034 462.095642,622.720276 473.640259,610.822632 
	C478.510040,605.803894 482.991852,600.331970 488.305237,595.841248 
	C494.004425,591.024414 495.518738,586.306458 493.657898,578.721924 
	C491.895996,571.540588 493.118225,563.627136 493.518677,556.189880 
	C493.469971,555.913940 493.421265,555.638062 493.372559,555.362122 
	C493.246979,555.573120 493.121368,555.784119 492.329681,556.118347 
M594.763977,612.964783 
	C608.528870,599.177429 622.315796,585.411987 636.052795,571.596924 
	C651.052612,556.511841 658.039795,538.552551 653.178223,517.483398 
	C643.278442,474.579498 590.661316,459.760162 558.269287,490.604340 
	C545.849854,502.430328 533.752930,514.608398 521.804016,526.912354 
	C498.338654,551.075012 499.069733,586.184998 523.290894,609.486816 
	C529.159546,615.132690 536.852234,615.314148 541.891968,609.925598 
	C548.568176,602.787292 548.440125,597.215637 541.451782,590.720642 
	C540.841858,590.153748 540.226562,589.591858 539.632751,589.008301 
	C528.052612,577.627686 527.387695,558.346741 538.589050,546.541687 
	C550.390686,534.103943 562.386047,521.836243 574.640564,509.845673 
	C587.633423,497.132660 608.379944,497.162933 620.051025,509.461334 
	C632.023682,522.077515 630.834412,540.806824 617.306641,554.112122 
	C610.183533,561.118103 603.106628,568.176208 596.211670,575.404297 
	C594.947266,576.729736 593.640381,579.290466 594.081604,580.763245 
	C597.304016,591.520447 596.773132,602.125061 593.320374,613.005981 
	C593.336670,613.240112 593.352966,613.474304 593.369263,613.708435 
	C593.612732,613.507935 593.856201,613.307434 594.763977,612.964783 
z"/>
<path fill="#FAFBFB" opacity="1.000000" stroke="none" 
	d="
M351.302246,322.480865 
	C356.951630,316.746979 363.537903,313.951599 372.039001,313.863281 
	C430.871277,313.810089 488.928650,313.769989 546.986023,313.729919 
	C558.511536,314.534821 563.838013,324.179962 571.608459,330.902344 
	C573.517029,332.685791 575.117126,334.346680 577.159424,336.446716 
	C579.088867,338.251678 580.576233,339.617493 582.063538,340.983337 
	C582.856689,341.911499 583.649841,342.839661 584.830994,344.161499 
	C586.230835,345.476440 587.242615,346.397736 588.254456,347.319031 
	C589.416382,348.538727 590.578369,349.758423 592.197144,351.421814 
	C596.056274,355.233917 599.396240,358.668518 602.879333,361.951172 
	C606.076416,364.964233 609.902771,367.433624 612.609375,370.816589 
	C617.739441,377.228638 619.162964,385.015839 619.141602,393.090271 
	C619.081604,394.432648 619.021667,395.775024 618.949585,397.913452 
	C618.937378,416.160736 618.937378,433.611969 618.937378,451.031128 
	C611.061279,450.336304 603.642578,449.681824 595.775391,448.987762 
	C595.775391,429.707703 595.775391,410.455109 595.775391,390.875488 
	C582.368164,390.875488 569.410828,390.686035 556.462646,390.950409 
	C549.315979,391.096344 543.824341,388.811707 540.204346,382.525970 
	C539.880615,376.323456 539.556885,370.120911 539.241760,363.000183 
	C539.200928,354.391937 539.151489,346.701965 539.170288,338.736389 
	C539.119263,338.313843 538.999878,338.166931 538.631653,337.690063 
	C485.860474,337.335419 433.338196,337.308594 380.815918,337.298401 
	C379.499451,337.298126 378.182922,337.480957 376.634064,337.484802 
	C376.247314,337.454865 376.092957,337.518585 375.561035,337.460449 
	C374.134766,337.397858 373.086029,337.457123 371.764038,337.421387 
	C371.308044,337.387817 371.125244,337.449219 370.567688,337.475037 
	C368.811310,338.962433 367.429749,340.485321 365.938843,342.250854 
	C365.878998,342.663940 365.928436,342.834351 365.866089,343.459808 
	C365.810089,348.942780 365.865906,353.970642 365.921692,358.998535 
	C365.847809,364.025146 365.773895,369.051788 365.715393,374.903442 
	C365.800934,376.490570 365.871002,377.252686 365.941101,378.014771 
	C365.855652,400.231964 365.761536,422.449127 365.690125,444.666382 
	C365.669312,451.135254 365.713348,457.604340 365.732056,464.988403 
	C365.808838,471.273010 365.881256,476.642548 365.953674,482.012115 
	C365.871490,485.041779 365.789307,488.071472 365.716736,491.978271 
	C365.796021,495.238953 365.865692,497.622498 365.820831,500.330994 
	C365.783783,501.102020 365.861298,501.548126 365.839752,502.365723 
	C365.809143,503.496765 365.877594,504.256287 365.946045,505.015839 
	C365.865265,522.412781 365.778778,539.809753 365.706055,557.206726 
	C365.670044,565.826782 365.659393,574.446899 365.658142,583.894348 
	C365.754425,585.489197 365.829803,586.256714 365.905212,587.024231 
	C365.846008,594.046997 365.786804,601.069824 365.791687,608.799316 
	C365.923615,609.667419 365.991486,609.828857 366.059326,609.990356 
	C367.000763,617.806641 371.356995,621.675293 379.353699,621.695374 
	C390.805634,621.724182 402.257721,621.702759 414.227112,621.702759 
	C414.227112,629.438416 414.227112,636.979065 414.227112,644.723450 
	C400.739075,644.723450 386.902222,645.605286 373.227936,644.491333 
	C357.551514,643.214172 346.760956,632.027954 342.832275,615.067505 
	C342.602661,614.268250 342.498169,614.089294 342.393677,613.910339 
	C342.338959,575.247864 342.284210,536.585388 342.216980,497.042542 
	C342.140747,494.439636 342.077087,492.717041 342.013428,490.994476 
	C342.067322,478.700409 342.161560,466.406372 342.167480,454.112274 
	C342.184814,418.204712 342.188904,382.297150 342.147217,346.389648 
	C342.136719,337.342041 344.929260,329.433044 351.302246,322.480865 
z"/>
<path fill="#183552" opacity="1.000000" stroke="none" 
	d="
M539.970703,382.881897 
	C543.824341,388.811707 549.315979,391.096344 556.462646,390.950409 
	C569.410828,390.686035 582.368164,390.875488 595.775391,390.875488 
	C595.775391,410.455109 595.775391,429.707703 595.775391,448.987762 
	C603.642578,449.681824 611.061279,450.336304 618.937378,451.031128 
	C618.937378,433.611969 618.937378,416.160736 619.030762,398.309814 
	C622.173706,397.431061 623.431213,399.339935 623.745544,401.826752 
	C624.611938,408.680969 625.585266,415.548676 625.878296,422.438171 
	C626.051697,426.513977 626.990723,429.712891 629.984375,432.598145 
	C633.817871,436.292908 634.224304,451.139221 630.771973,455.092102 
	C629.977783,456.001434 628.524658,456.861511 627.383972,456.849762 
	C622.780701,456.802338 618.181824,456.387268 613.578552,456.165253 
	C613.145142,456.144348 612.692383,456.524750 612.042847,457.037659 
	C591.604004,454.573151 572.593689,457.927399 556.030762,470.208099 
	C548.347595,475.904816 541.788025,483.132721 534.819702,489.772125 
	C530.252869,494.123505 525.866272,498.664062 520.689087,503.135498 
	C517.717712,503.227051 513.929749,502.596100 513.501526,503.520874 
	C512.502319,505.678619 513.118286,508.584290 513.079956,511.187012 
	C511.995422,512.413757 510.910889,513.640503 509.137238,514.961304 
	C507.658173,516.107422 506.868225,517.159424 506.078308,518.211426 
	C506.079529,518.549805 505.933960,518.804138 505.417603,519.021240 
	C499.380157,515.900574 493.552368,512.758911 487.763824,509.546539 
	C486.396088,508.787506 485.160309,507.790588 483.633820,506.745636 
	C478.853546,516.384277 469.623810,513.805664 462.205841,515.403320 
	C454.099274,517.149231 446.947937,512.636230 439.473206,510.347992 
	C437.742645,509.818237 435.575745,510.602692 433.630157,510.911774 
	C430.482544,511.411865 427.370575,512.256897 424.208160,512.504272 
	C421.766663,512.695312 419.160706,512.573181 416.829193,511.896576 
	C414.325562,511.170013 412.054749,509.637787 409.686646,508.448547 
	C407.410553,507.305481 405.215851,505.944824 402.841034,505.072784 
	C401.181549,504.463409 399.148071,504.831482 397.531586,504.160706 
	C396.473053,503.721466 395.861053,502.206268 395.049042,501.173004 
	C396.107361,500.449890 397.165680,499.726776 398.833984,499.263489 
	C400.632599,500.064209 401.821259,500.605072 403.054535,501.433167 
	C403.749054,501.773285 404.398987,501.826141 405.513397,501.843689 
	C407.469818,501.814178 408.961731,501.821686 410.453644,501.825531 
	C437.304779,501.894928 464.155945,501.963867 491.255951,502.304047 
	C493.332764,502.112152 495.160675,501.649109 497.310852,501.011108 
	C498.862854,500.145020 500.308868,499.675507 501.284424,498.723816 
	C505.234314,494.870636 506.422974,490.235504 504.286377,485.060974 
	C502.181366,479.962860 497.994934,478.100128 492.712830,478.122162 
	C464.949158,478.238129 437.184937,478.278320 409.422424,478.520630 
	C406.530975,478.545868 403.649689,479.728638 400.763672,480.374329 
	C395.667480,478.749725 390.712463,477.032715 388.117737,471.627319 
	C387.719238,470.797150 385.640259,470.281372 384.448029,470.440582 
	C382.693085,470.674988 381.033813,472.184204 379.338989,472.175110 
	C376.976990,472.162506 373.335266,471.959198 372.559784,470.556061 
	C371.377441,468.416809 371.068207,464.415741 372.349121,462.555542 
	C376.043549,457.190613 380.573578,452.360474 385.125427,447.659149 
	C386.093994,446.658783 388.594543,446.726166 390.299866,446.958374 
	C392.499390,447.257843 394.608917,448.218201 397.418884,449.064850 
	C400.636627,452.783173 404.171875,454.118256 408.454346,454.078735 
	C417.443634,453.995697 426.434052,454.020416 435.424011,454.022766 
	C472.715790,454.032562 510.007538,454.044312 547.299316,454.073059 
	C552.026855,454.076691 556.224548,453.003479 558.958374,448.730896 
	C563.695068,441.328033 560.627502,434.444092 550.875854,430.424438 
	C548.901672,429.696228 547.040039,429.044739 545.177612,429.042328 
	C501.118835,428.985474 457.059906,428.998505 413.001038,428.998779 
	C414.173584,426.057709 413.360809,424.454437 410.053253,423.958374 
	C404.977020,423.197083 401.624237,421.024536 401.722900,414.926025 
	C401.748535,413.341644 398.645020,410.694763 396.629852,410.295013 
	C392.114960,409.399445 390.990906,406.506073 389.848663,402.597565 
	C392.357727,401.994507 394.401733,401.503235 397.126343,401.200256 
	C400.364868,405.251190 404.099274,406.386108 408.542267,406.371460 
	C435.766998,406.281677 462.992004,406.274475 490.216919,406.248688 
	C502.394257,406.237183 507.471558,398.671631 502.706848,387.612732 
	C506.084198,386.787262 509.429871,385.771973 512.849792,385.202057 
	C515.186707,384.812683 517.767456,385.536011 519.993225,384.900543 
	C525.296265,383.386597 530.465149,382.111664 535.984802,383.872955 
	C537.058594,384.215637 538.477356,383.477478 539.970703,382.881897 
z"/>
<path fill="#183552" opacity="1.000000" stroke="none" 
	d="
M366.310730,358.998596 
	C365.865906,353.970642 365.810089,348.942780 366.033936,343.375183 
	C366.386749,342.735443 366.542725,342.578674 366.519470,342.544769 
	C366.385895,342.349792 366.209839,342.183960 366.048157,342.008240 
	C367.429749,340.485321 368.811310,338.962433 370.648376,337.718750 
	C371.414978,337.837433 371.726135,337.676910 372.037262,337.516388 
	C373.086029,337.457123 374.134766,337.397858 375.638733,337.680176 
	C376.351440,337.873993 376.608917,337.726166 376.866425,337.578369 
	C378.182922,337.480957 379.499451,337.298126 380.815918,337.298401 
	C433.338196,337.308594 485.860474,337.335419 538.483704,337.805481 
	C538.757080,338.504547 538.929565,338.758270 539.102051,339.011963 
	C539.151489,346.701965 539.200928,354.391937 539.146240,362.540619 
	C536.092957,363.324951 533.027405,363.245880 530.216858,364.053894 
	C522.501831,366.271912 516.411865,363.580231 511.672943,357.859802 
	C509.024536,354.662903 505.765381,354.355743 502.773315,355.293823 
	C500.783417,355.917725 498.781891,358.563782 498.036133,360.734344 
	C495.063599,369.386383 487.626862,371.753571 480.481628,365.911407 
	C479.070679,364.757782 477.929321,363.277588 476.536835,362.097687 
	C471.703735,358.002563 471.206207,358.294556 466.637054,362.725861 
	C461.679871,367.533539 455.988373,370.671783 448.739746,367.408783 
	C445.910461,366.135132 443.270416,365.465057 440.734589,368.509583 
	C439.855896,369.564636 437.163239,370.117157 435.890198,369.556671 
	C434.572693,368.976593 433.236420,366.746063 433.277802,365.276001 
	C433.314972,363.954987 435.169922,362.650208 436.295227,361.403412 
	C437.803070,359.732758 439.380432,358.124847 440.927948,356.490021 
	C439.000610,354.727875 437.294647,351.935913 435.090332,351.462097 
	C432.281769,350.858368 428.803894,351.522034 426.085205,352.713409 
	C419.496155,355.600800 413.430115,360.015839 405.597443,358.150574 
	C405.166382,358.047913 404.554260,358.217987 404.171112,358.475983 
	C399.373322,361.706085 395.623993,361.333435 391.053345,357.051300 
	C387.002258,353.255951 383.305511,358.110016 379.939697,360.358795 
	C378.211700,361.513306 376.960358,363.381256 375.781586,364.623352 
	C372.506409,362.594940 369.603088,360.796814 366.310730,358.998596 
z"/>
<path fill="#FCFCFD" opacity="1.000000" stroke="none" 
	d="
M550.988037,430.803467 
	C560.627502,434.444092 563.695068,441.328033 558.958374,448.730896 
	C556.224548,453.003479 552.026855,454.076691 547.299316,454.073059 
	C510.007538,454.044312 472.715790,454.032562 435.424011,454.022766 
	C426.434052,454.020416 417.443634,453.995697 408.454346,454.078735 
	C404.171875,454.118256 400.636627,452.783173 397.848724,449.011963 
	C397.169525,445.690613 396.722229,442.593079 396.512207,438.844757 
	C397.013672,437.513062 397.277893,436.832184 397.542114,436.151306 
	C400.140167,434.458710 402.738220,432.766144 406.134827,431.020508 
	C432.855560,430.955688 458.777710,430.956573 484.699860,430.928284 
	C506.795959,430.904144 528.891968,430.846375 550.988037,430.803467 
z"/>
<path fill="#F8F9FA" opacity="1.000000" stroke="none" 
	d="
M491.007080,502.032898 
	C464.155945,501.963867 437.304779,501.894928 410.453644,501.825531 
	C408.961731,501.821686 407.469818,501.814178 405.311829,501.645142 
	C404.100464,501.369965 403.555206,501.257965 403.009918,501.145935 
	C401.821259,500.605072 400.632599,500.064209 399.242859,499.261597 
	C397.832001,495.078857 394.058655,491.672180 396.316742,487.062378 
	C397.380096,484.891663 398.964081,482.975983 400.537903,480.659546 
	C403.649689,479.728638 406.530975,478.545868 409.422424,478.520630 
	C437.184937,478.278320 464.949158,478.238129 492.712830,478.122162 
	C497.994934,478.100128 502.181366,479.962860 504.286377,485.060974 
	C506.422974,490.235504 505.234314,494.870636 501.284424,498.723816 
	C500.308868,499.675507 498.862854,500.145020 496.933472,501.006073 
	C494.491608,501.461609 492.749329,501.747253 491.007080,502.032898 
z"/>
<path fill="#FBFCFC" opacity="1.000000" stroke="none" 
	d="
M502.411560,387.402435 
	C507.471558,398.671631 502.394257,406.237183 490.216919,406.248688 
	C462.992004,406.274475 435.766998,406.281677 408.542267,406.371460 
	C404.099274,406.386108 400.364868,405.251190 397.537506,401.194122 
	C393.470154,389.421204 397.914825,383.160919 409.948883,383.152588 
	C437.081085,383.133759 464.215088,382.968353 491.343414,383.285309 
	C494.949097,383.327454 498.526031,385.829346 502.411560,387.402435 
z"/>
<path fill="#153250" opacity="1.000000" stroke="none" 
	d="
M546.336426,299.853210 
	C542.785217,300.541870 541.065308,298.878845 540.017395,296.063690 
	C537.643250,289.685852 533.542664,286.380402 526.286926,287.852844 
	C524.911133,288.132019 522.660767,286.961060 521.780334,285.754211 
	C521.248169,285.024841 522.230042,282.669464 523.128540,281.505310 
	C527.812317,275.436310 527.263367,275.946991 522.710510,269.844086 
	C519.507141,265.550171 518.092285,259.851807 516.340027,254.625885 
	C516.093689,253.891312 518.376038,251.382004 519.663879,251.234894 
	C523.425049,250.805283 527.365112,250.687775 531.052917,251.396118 
	C532.915344,251.753860 534.594788,253.988541 535.975891,255.684860 
	C537.577148,257.651581 538.759949,259.958984 540.618469,262.900543 
	C542.502441,260.661743 544.091492,259.394257 544.866516,257.744385 
	C548.108337,250.842926 548.022339,250.799438 555.756592,253.717987 
	C552.558716,258.557617 548.918213,262.983673 545.778076,267.740143 
	C544.590576,269.538879 544.750183,272.173218 543.944336,274.293152 
	C543.183044,276.295898 542.395508,278.659119 540.848938,279.914215 
	C537.821228,282.371277 536.827820,284.774353 539.440613,287.865387 
	C541.940674,290.823090 544.141907,290.710480 546.674500,287.388458 
	C547.443787,286.379395 550.508728,286.656891 552.295959,287.155853 
	C552.869324,287.315918 553.109741,290.158325 552.816406,291.637451 
	C552.102844,295.234955 551.745361,299.338501 546.336426,299.853210 
z"/>
<path fill="#183552" opacity="1.000000" stroke="none" 
	d="
M619.583496,393.072418 
	C619.162964,385.015839 617.739441,377.228638 612.609375,370.816589 
	C609.902771,367.433624 606.076416,364.964233 602.879333,361.951172 
	C599.396240,358.668518 596.056274,355.233917 592.474915,351.561218 
	C593.918945,350.983093 595.569336,350.817444 597.159668,350.414398 
	C601.359619,349.350037 605.073730,349.981201 607.924438,353.450348 
	C611.361755,357.633301 614.670959,361.921295 618.089294,366.120087 
	C619.121582,367.388000 620.137207,368.843475 621.496155,369.640320 
	C626.595764,372.630341 628.012878,376.733673 625.997986,382.219299 
	C624.864075,385.306580 624.027344,388.509949 622.757690,391.535522 
	C622.440613,392.290985 620.967346,392.561279 619.583496,393.072418 
z"/>
<path fill="#0D2B48" opacity="1.000000" stroke="none" 
	d="
M550.875854,430.424438 
	C528.891968,430.846375 506.795959,430.904144 484.699860,430.928284 
	C458.777710,430.956573 432.855560,430.955688 406.471191,430.888672 
	C408.060760,430.206940 410.112579,429.604004 412.582703,428.999939 
	C457.059906,428.998505 501.118835,428.985474 545.177612,429.042328 
	C547.040039,429.044739 548.901672,429.696228 550.875854,430.424438 
z"/>
<path fill="#183552" opacity="1.000000" stroke="none" 
	d="
M515.789429,377.982483 
	C513.674194,378.753754 511.621735,379.147644 510.293030,380.344788 
	C507.384399,382.965424 505.773865,381.806305 504.587311,379.808594 
	C507.897675,376.361145 510.635345,372.997406 513.943604,370.345306 
	C515.087952,369.427917 518.204651,369.549683 519.437622,370.488068 
	C521.418457,371.995544 521.557007,374.538666 519.119324,376.331055 
	C518.222839,376.990234 517.164795,377.429688 515.789429,377.982483 
z"/>
<path fill="#183552" opacity="1.000000" stroke="none" 
	d="
M365.938812,501.994202 
	C365.861298,501.548126 365.783783,501.102020 366.089172,500.330963 
	C366.651031,500.005219 366.829926,500.004425 367.008850,500.003662 
	C368.246674,499.556580 369.499420,498.714905 370.718567,498.761047 
	C372.285339,498.820282 374.180603,499.210907 375.242737,500.200836 
	C375.876251,500.791260 375.184082,502.804108 375.087860,504.177490 
	C373.455994,504.009796 371.788940,503.990875 370.205902,503.616577 
	C369.308777,503.404510 368.549438,502.609650 367.100800,502.035675 
	C366.295288,501.994110 366.117035,501.994171 365.938812,501.994202 
z"/>
<path fill="#153250" opacity="1.000000" stroke="none" 
	d="
M558.090820,254.395493 
	C562.939514,254.402985 567.879028,254.805969 572.909302,255.604492 
	C568.060547,255.596985 563.121155,255.193985 558.090820,254.395493 
z"/>
<path fill="#183552" opacity="1.000000" stroke="none" 
	d="
M582.412109,340.983398 
	C580.576233,339.617493 579.088867,338.251678 577.433472,336.586243 
	C579.527710,337.065613 581.789917,337.844635 584.052185,338.623657 
	C583.621704,339.410248 583.191223,340.196838 582.412109,340.983398 
z"/>
<path fill="#183552" opacity="1.000000" stroke="none" 
	d="
M588.614990,347.135437 
	C587.242615,346.397736 586.230835,345.476440 585.119385,344.273193 
	C586.342651,343.559998 587.665466,343.128784 588.988342,342.697540 
	C588.984131,344.115631 588.979858,345.533722 588.614990,347.135437 
z"/>
<path fill="#0D2944" opacity="1.000000" stroke="none" 
	d="
M366.259949,481.725586 
	C365.881256,476.642548 365.808838,471.273010 365.842529,465.445068 
	C366.154480,470.470825 366.360352,475.954926 366.259949,481.725586 
z"/>
<path fill="#0D2944" opacity="1.000000" stroke="none" 
	d="
M367.005554,499.571594 
	C366.829926,500.004425 366.651031,500.005219 366.203735,500.006012 
	C365.865692,497.622498 365.796021,495.238953 365.830933,492.419281 
	C366.291077,494.368591 366.646667,496.754059 367.005554,499.571594 
z"/>
<path fill="#0D2740" opacity="1.000000" stroke="none" 
	d="
M341.732239,491.236511 
	C342.077087,492.717041 342.140747,494.439636 342.111816,496.584473 
	C341.829803,495.164032 341.640411,493.321289 341.732239,491.236511 
z"/>
<path fill="#0D2944" opacity="1.000000" stroke="none" 
	d="
M366.174011,586.843933 
	C365.829803,586.256714 365.754425,585.489197 365.783966,584.347046 
	C366.073547,584.869446 366.258179,585.766541 366.174011,586.843933 
z"/>
<path fill="#0D2944" opacity="1.000000" stroke="none" 
	d="
M365.839752,502.365723 
	C366.117035,501.994171 366.295288,501.994110 366.741058,501.995209 
	C366.836212,502.869263 366.663879,503.742188 366.218811,504.815491 
	C365.877594,504.256287 365.809143,503.496765 365.839752,502.365723 
z"/>
<path fill="#0D2944" opacity="1.000000" stroke="none" 
	d="
M366.202606,377.833984 
	C365.871002,377.252686 365.800934,376.490570 365.833893,375.356567 
	C366.112671,375.874146 366.288391,376.763641 366.202606,377.833984 
z"/>
<path fill="#183552" opacity="1.000000" stroke="none" 
	d="
M397.163879,436.297272 
	C397.277893,436.832184 397.013672,437.513062 396.488281,438.451660 
	C396.413269,437.953979 396.599487,437.198639 397.163879,436.297272 
z"/>
<path fill="#0D2944" opacity="1.000000" stroke="none" 
	d="
M366.216248,609.892029 
	C365.991486,609.828857 365.923615,609.667419 365.922791,609.252075 
	C366.117584,609.263245 366.245361,609.528503 366.216248,609.892029 
z"/>
<path fill="#0D2740" opacity="1.000000" stroke="none" 
	d="
M342.162842,614.035278 
	C342.498169,614.089294 342.602661,614.268250 342.685211,614.757324 
	C342.419556,614.764954 342.175781,614.462585 342.162842,614.035278 
z"/>
<path fill="#0D2B48" opacity="1.000000" stroke="none" 
	d="
M546.864014,313.358459 
	C488.928650,313.769989 430.871277,313.810089 372.419128,313.762054 
	C372.020050,313.394348 372.015717,313.114746 372.005066,312.415771 
	C381.020782,311.997101 390.042816,311.997833 400.002014,311.998322 
	C413.291962,311.996643 425.644775,311.995270 437.997559,311.993896 
	C443.687042,311.995270 449.376495,311.996674 455.534210,311.995361 
	C484.545013,311.995544 513.087646,311.981567 541.630066,312.043457 
	C543.334656,312.047150 545.038025,312.658417 546.864014,313.358459 
z"/>
<path fill="#183552" opacity="1.000000" stroke="none" 
	d="
M437.917786,311.616089 
	C425.644775,311.995270 413.291962,311.996643 400.470825,311.996582 
	C402.537262,310.997131 405.009064,309.766968 407.622284,309.057678 
	C411.195312,308.087830 414.874939,307.509430 418.510864,306.773071 
	C419.780579,306.515961 421.199799,305.802704 422.304749,306.129486 
	C427.529175,307.674652 432.668396,309.507782 437.917786,311.616089 
z"/>
<path fill="#F27313" opacity="1.000000" stroke="none" 
	d="
M593.764282,612.760132 
	C596.773132,602.125061 597.304016,591.520447 594.081604,580.763245 
	C593.640381,579.290466 594.947266,576.729736 596.211670,575.404297 
	C603.106628,568.176208 610.183533,561.118103 617.306641,554.112122 
	C630.834412,540.806824 632.023682,522.077515 620.051025,509.461334 
	C608.379944,497.162933 587.633423,497.132660 574.640564,509.845673 
	C562.386047,521.836243 550.390686,534.103943 538.589050,546.541687 
	C527.387695,558.346741 528.052612,577.627686 539.632751,589.008301 
	C540.226562,589.591858 540.841858,590.153748 541.451782,590.720642 
	C548.440125,597.215637 548.568176,602.787292 541.891968,609.925598 
	C536.852234,615.314148 529.159546,615.132690 523.290894,609.486816 
	C499.069733,586.184998 498.338654,551.075012 521.804016,526.912354 
	C533.752930,514.608398 545.849854,502.430328 558.269287,490.604340 
	C590.661316,459.760162 643.278442,474.579498 653.178223,517.483398 
	C658.039795,538.552551 651.052612,556.511841 636.052795,571.596924 
	C622.315796,585.411987 608.528870,599.177429 594.348083,612.949097 
	C593.932190,612.933350 593.764282,612.760132 593.764282,612.760132 
z"/>
<path fill="#F17212" opacity="1.000000" stroke="none" 
	d="
M493.028015,556.035645 
	C493.118225,563.627136 491.895996,571.540588 493.657898,578.721924 
	C495.518738,586.306458 494.004425,591.024414 488.305237,595.841248 
	C482.991852,600.331970 478.510040,605.803894 473.640259,610.822632 
	C462.095642,622.720276 461.728119,641.147034 472.816589,652.851135 
	C484.060089,664.718933 502.002075,665.417847 514.518127,653.817200 
	C524.890808,644.203125 534.451294,633.717834 544.691040,623.953552 
	C551.160400,617.784607 555.765076,610.744690 557.928711,602.083557 
	C561.065308,589.527588 555.758423,580.072266 546.910767,571.904358 
	C542.367004,567.709656 541.190308,562.110779 543.721802,556.639099 
	C547.366211,548.761963 555.695251,546.838501 562.829956,552.226440 
	C583.189941,567.601562 589.640442,594.760925 579.488159,618.724426 
	C574.038452,631.588074 564.798767,641.157166 555.307800,650.738525 
	C547.925537,658.191040 540.542480,665.643066 533.114929,673.050415 
	C510.198730,695.904297 469.879578,692.231201 450.078522,666.603638 
	C434.789642,646.815979 433.828339,612.624512 456.822968,591.260376 
	C469.016388,579.931519 480.516571,567.856506 492.669617,556.065002 
	C493.009552,556.011658 493.028015,556.035645 493.028015,556.035645 
z"/>
<path fill="#153250" opacity="1.000000" stroke="none" 
	d="
M513.391846,511.052246 
	C513.118286,508.584290 512.502319,505.678619 513.501526,503.520874 
	C513.929749,502.596100 517.717712,503.227051 520.411743,503.278412 
	C518.464233,505.909607 516.083984,508.413513 513.391846,511.052246 
z"/>
<path fill="#153250" opacity="1.000000" stroke="none" 
	d="
M506.379395,518.090149 
	C506.868225,517.159424 507.658173,516.107422 508.848602,515.073425 
	C508.392883,516.050598 507.536682,517.009705 506.379395,518.090149 
z"/>
<path fill="#F17212" opacity="1.000000" stroke="none" 
	d="
M493.002686,556.003418 
	C493.121368,555.784119 493.246979,555.573120 493.372559,555.362122 
	C493.421265,555.638062 493.469971,555.913940 493.273346,556.112793 
	C493.028015,556.035645 493.009552,556.011658 493.002686,556.003418 
z"/>
<path fill="#F27313" opacity="1.000000" stroke="none" 
	d="
M594.015930,613.020142 
	C593.856201,613.307434 593.612732,613.507935 593.369263,613.708435 
	C593.352966,613.474304 593.336670,613.240112 593.542358,612.883057 
	C593.764282,612.760132 593.932190,612.933350 594.015930,613.020142 
z"/>
<path fill="#153250" opacity="1.000000" stroke="none" 
	d="
M371.764038,337.421387 
	C371.726135,337.676910 371.414978,337.837433 371.023163,337.754272 
	C371.125244,337.449219 371.308044,337.387817 371.764038,337.421387 
z"/>
<path fill="#153250" opacity="1.000000" stroke="none" 
	d="
M539.170288,338.736389 
	C538.929565,338.758270 538.757080,338.504547 538.732605,338.135406 
	C538.999878,338.166931 539.119263,338.313843 539.170288,338.736389 
z"/>
<path fill="#153250" opacity="1.000000" stroke="none" 
	d="
M376.634064,337.484772 
	C376.608917,337.726166 376.351440,337.873993 376.016235,337.802032 
	C376.092957,337.518585 376.247314,337.454865 376.634064,337.484772 
z"/>
<path fill="#0D2944" opacity="1.000000" stroke="none" 
	d="
M365.938873,342.250885 
	C366.209839,342.183960 366.385895,342.349792 366.519470,342.544769 
	C366.542725,342.578674 366.386749,342.735443 366.145721,342.920105 
	C365.928436,342.834351 365.878998,342.663940 365.938873,342.250885 
z"/>
<path fill="#0D2B48" opacity="1.000000" stroke="none" 
	d="
M491.255951,502.304077 
	C492.749329,501.747253 494.491608,501.461609 496.611237,501.181030 
	C495.160675,501.649109 493.332764,502.112152 491.255951,502.304077 
z"/>
<path fill="#0D2B48" opacity="1.000000" stroke="none" 
	d="
M403.054535,501.433167 
	C403.555206,501.257965 404.100464,501.369965 404.847321,501.680481 
	C404.398987,501.826141 403.749054,501.773285 403.054535,501.433167 
z"/>
</svg>